<?xml version="1.0" encoding="UTF-8" standalone="no"?><svg xmlns="http://www.w3.org/2000/svg" xmlns:xlink="http://www.w3.org/1999/xlink" contentScriptType="text/ecmascript" fill="#000000" width="406" zoomAndPan="magnify" contentStyleType="text/css" viewBox="53.2 18.5 405.7 475.0" height="475" preserveAspectRatio="xMidYMid meet" version="1"><g id="change1_1"><path fill="#1e1e1e" d="M292.462,267.098c0,20.94-17.035,37.975-37.975,37.975c-20.954,0-38.001-17.036-38.001-37.975 c0-20.954,17.047-38.001,38.001-38.001C275.427,229.096,292.462,246.144,292.462,267.098z M244.852,455.193 c1.448,1.448,3.346,2.173,5.244,2.173s3.796-0.725,5.244-2.173l25.01-25.009c2.896-2.896,2.896-7.591,0-10.488 c-2.896-2.896-7.591-2.896-10.488,0l-19.766,19.765l-10.982-10.982c-2.896-2.896-7.592-2.896-10.488,0 c-2.896,2.897-2.896,7.592,0,10.488L244.852,455.193z M458.852,181.917c0,51.058-41.538,92.597-92.596,92.597h-33.616 c-0.503,4.261-3.411,7.851-7.57,9.168l-7.091,2.302c-1.318,4.42-3.073,8.648-5.245,12.639l3.406,6.687 c2.19,4.221,1.388,9.382-2.022,12.791l-8.626,8.626c-3.417,3.417-8.559,4.218-12.818,2.008l-6.68-3.381 c-3.994,2.173-8.224,3.928-12.62,5.236l-2.301,7.087c-1.45,4.583-5.655,7.659-10.484,7.659h-12.228 c-4.77,0-8.976-3.057-10.466-7.605l-2.319-7.143c-4.395-1.313-8.611-3.066-12.603-5.239l-6.705,3.405 c-4.247,2.204-9.406,1.393-12.8-2.043l-8.627-8.601c-3.365-3.366-4.187-8.487-2.053-12.752l3.434-6.743 c-2.172-4.023-3.921-8.252-5.224-12.629l-7.142-2.311c-4.111-1.3-7.016-4.896-7.518-9.16h-30.592 c-42.879,0-77.764,34.873-77.764,77.738c0,42.879,34.885,77.764,77.764,77.764h53.181c3.642-27.421,27.162-48.652,55.562-48.652 c30.916,0,56.068,25.152,56.068,56.069c0,30.915-25.152,56.068-56.068,56.068c-28.4,0-51.92-21.231-55.562-48.651h-53.181 c-51.058,0-92.596-41.539-92.596-92.597c0-51.043,41.539-92.571,92.596-92.571h30.59c0.493-4.205,3.361-7.798,7.457-9.165 l7.214-2.342c1.297-4.359,3.047-8.583,5.22-12.603l-3.411-6.676c-2.188-4.375-1.34-9.52,2.08-12.861l8.59-8.591 c3.358-3.359,8.478-4.182,12.743-2.046l6.731,3.438c4.007-2.168,8.243-3.925,12.615-5.229l2.312-7.142 c1.523-4.573,5.725-7.605,10.474-7.605h12.228c4.829,0,9.045,3.077,10.491,7.657l2.294,7.089c4.352,1.293,8.597,3.048,12.631,5.225 l6.695-3.409c4.213-2.147,9.329-1.36,12.729,1.961c0.024,0.024,0.047,0.046,0.07,0.07l8.598,8.624 c3.437,3.393,4.249,8.553,2.017,12.859l-3.385,6.627c2.171,3.98,3.935,8.222,5.244,12.622l7.128,2.314 c4.152,1.362,7.045,4.96,7.541,9.184h33.614c42.879,0,77.764-34.885,77.764-77.764s-34.885-77.763-77.764-77.763H215.509 c-0.495,4.202-3.374,7.796-7.487,9.165l-7.177,2.33c-1.313,4.4-3.07,8.622-5.249,12.622l3.407,6.669 c2.211,4.267,1.4,9.424-2.035,12.816l-8.601,8.627c-3.429,3.428-8.575,4.229-12.835,2.012l-6.658-3.391 c-4.071,2.201-8.299,3.952-12.625,5.229l-2.319,7.143c-1.522,4.566-5.723,7.599-10.472,7.599h-12.229 c-4.75,0-8.951-3.032-10.454-7.544l-2.337-7.197c-4.331-1.278-8.562-3.03-12.623-5.227l-6.662,3.403 c-4.24,2.2-9.411,1.396-12.825-2.017l-8.607-8.634c-3.436-3.392-4.249-8.55-2.018-12.856l3.39-6.636 c-2.197-4.053-3.955-8.287-5.233-12.611l-7.143-2.318c-4.582-1.526-7.624-5.728-7.624-10.472V90.637 c0-4.823,3.086-9.038,7.679-10.491l7.07-2.295c1.306-4.369,3.062-8.593,5.247-12.631l-3.393-6.663 c-2.215-4.261-1.413-9.405,2.007-12.824l8.625-8.625c3.416-3.415,8.587-4.217,12.866-1.996l6.615,3.378 c3.999-2.176,8.236-3.935,12.636-5.245l2.312-7.122c1.528-4.583,5.729-7.624,10.472-7.624h12.229c4.743,0,8.945,3.041,10.454,7.569 l2.331,7.179c4.42,1.317,8.648,3.073,12.638,5.244l6.651-3.387c4.262-2.216,9.407-1.416,12.827,2.002l8.626,8.627 c3.42,3.418,4.222,8.564,2.004,12.826l-3.388,6.652c2.177,4,3.936,8.237,5.246,12.64l7.122,2.311 c4.12,1.303,7.034,4.899,7.538,9.158h150.749C417.313,89.321,458.852,130.86,458.852,181.917z M200.761,93.418l-6.445-2.092 c-3.613-1.178-6.325-4.072-7.263-7.744c-1.173-4.442-2.956-8.735-5.284-12.7c-1.873-3.199-2.01-7.105-0.374-10.455 c0.019-0.037,0.037-0.074,0.056-0.111l3.084-6.055l-4.7-4.7l-6.056,3.083c-0.036,0.019-0.072,0.036-0.109,0.054 c-3.351,1.639-7.258,1.501-10.45-0.369c-3.972-2.332-8.265-4.115-12.766-5.303c-3.614-0.922-6.508-3.634-7.683-7.24l-2.095-6.453 h-6.665l-2.092,6.444c-1.174,3.6-4.051,6.306-7.703,7.253c-4.495,1.188-8.782,2.969-12.742,5.294 c-3.198,1.873-7.104,2.011-10.456,0.374c-0.039-0.02-0.079-0.039-0.118-0.059l-6.041-3.086l-4.707,4.707l3.084,6.055 c1.711,3.344,1.596,7.295-0.313,10.558c-2.348,4.038-4.136,8.34-5.305,12.767c-0.923,3.615-3.635,6.509-7.24,7.684l-6.453,2.095 v6.665l6.445,2.092c3.601,1.176,6.239,3.946,7.251,7.601c0.011,0.04,0.022,0.08,0.032,0.12c1.128,4.358,2.905,8.64,5.28,12.727 c1.896,3.318,1.996,7.253,0.296,10.576l-3.077,6.023l4.711,4.726l6.036-3.084c3.356-1.715,7.306-1.599,10.567,0.311 c4.051,2.354,8.342,4.131,12.733,5.268c0.039,0.01,0.077,0.02,0.116,0.031c3.658,1.011,6.429,3.65,7.6,7.241l2.087,6.429h6.682 l2.084-6.419c1.175-3.6,3.944-6.24,7.603-7.251c0.039-0.011,0.077-0.021,0.116-0.031c4.391-1.137,8.682-2.915,12.754-5.281 c3.24-1.896,7.192-2.012,10.548-0.297l6.041,3.077l4.704-4.719l-3.079-6.027c-0.02-0.04-0.04-0.08-0.06-0.12 c-1.644-3.367-1.524-7.159,0.33-10.405c2.381-4.056,4.164-8.341,5.343-12.809c0.923-3.612,3.633-6.506,7.235-7.682l6.458-2.096 V93.418z M213.252,437.432c0,22.737,18.498,41.235,41.236,41.235s41.236-18.498,41.236-41.235c0-22.738-18.498-41.236-41.236-41.236 S213.252,414.694,213.252,437.432z M317.893,263.752l-6.445-2.092c-3.594-1.171-6.303-4.041-7.253-7.678 c-1.173-4.467-2.955-8.757-5.295-12.741c-1.898-3.319-2.019-7.111-0.374-10.48c0.02-0.04,0.039-0.08,0.059-0.12l3.079-6.028 l-4.704-4.718l-6.051,3.082c-3.346,1.711-7.296,1.595-10.558-0.314c-3.981-2.314-8.284-4.094-12.768-5.278 c-3.718-1.027-6.482-3.639-7.667-7.191l-2.105-6.501h-6.677l-2.084,6.439c-1.205,3.613-3.969,6.226-7.605,7.231l-0.082,0.022 c-4.453,1.176-8.746,2.955-12.762,5.29c-3.314,1.895-7.25,1.998-10.574,0.297l-6.021-3.076l-4.722,4.722l3.077,6.023 c1.698,3.319,1.598,7.254-0.27,10.524c-2.365,4.068-4.144,8.367-5.315,12.826c-0.011,0.044-0.024,0.088-0.036,0.132 c-1.023,3.623-3.66,6.369-7.234,7.533l-6.425,2.086v6.681l6.439,2.084c3.611,1.202,6.226,3.967,7.231,7.604 c1.206,4.568,2.986,8.87,5.312,12.87c1.899,3.244,2.014,7.195,0.296,10.551l-3.075,6.039l4.723,4.708l6.039-3.066 c3.317-1.699,7.254-1.607,10.51,0.254c4.053,2.38,8.337,4.162,12.806,5.342c3.614,0.921,6.508,3.634,7.684,7.24l2.095,6.453h6.665 l2.092-6.444c1.178-3.614,4.073-6.327,7.746-7.263c4.442-1.172,8.734-2.955,12.699-5.283c3.257-1.908,7.209-2.013,10.58-0.285 l6.036,3.055l4.705-4.706l-3.084-6.055c-0.019-0.037-0.037-0.074-0.055-0.111c-1.637-3.351-1.499-7.257,0.37-10.448 c2.332-3.972,4.115-8.265,5.303-12.766c0.924-3.616,3.636-6.509,7.241-7.683l6.452-2.095V263.752z M137.356,58.763 c-20.954,0-38.001,17.036-38.001,37.975c0,20.954,17.047,38.001,38.001,38.001c20.939,0,37.975-17.047,37.975-38.001 C175.33,75.798,158.295,58.763,137.356,58.763z"/></g></svg>