<?xml version="1.0" encoding="UTF-8" standalone="no"?><svg xmlns="http://www.w3.org/2000/svg" xmlns:xlink="http://www.w3.org/1999/xlink" contentScriptType="text/ecmascript" fill="#000000" width="195.2" zoomAndPan="magnify" contentStyleType="text/css" viewBox="0.0 0.0 195.2 200.0" height="200" preserveAspectRatio="xMidYMid meet" version="1"><defs><clipPath id="a"><path d="M 97 0 L 195.210938 0 L 195.210938 158 L 97 158 Z M 97 0"/></clipPath></defs><g><g id="change1_2"><path fill="#1c4653" d="M 98.96875 48.082031 L 97.457031 48.023438 L 96.09375 48.035156 L 96.09375 48.082031 C 78.308594 49.160156 64.046875 64.558594 64.046875 83.035156 C 64.046875 100.527344 90.554688 150.222656 96.378906 156.480469 C 96.539062 156.71875 96.71875 156.878906 96.902344 156.980469 L 97.117188 157.152344 L 97.617188 157.152344 C 97.640625 157.152344 97.652344 157.152344 97.675781 157.152344 L 98.128906 157.152344 L 98.34375 156.960938 C 98.515625 156.855469 98.683594 156.699219 98.832031 156.480469 C 104.660156 150.222656 131.164062 100.527344 131.164062 83.035156 C 131.164062 64.515625 116.820312 49.078125 98.96875 48.082031 Z M 97.582031 50.726562 L 97.574219 50.726562 Z M 97.605469 103.460938 C 86.734375 103.460938 77.90625 94.34375 77.90625 83.140625 C 77.90625 71.925781 86.734375 62.808594 97.605469 62.808594 C 108.464844 62.808594 117.304688 71.925781 117.304688 83.140625 C 117.304688 94.34375 108.464844 103.460938 97.605469 103.460938"/></g><g id="change1_3"><path fill="#1c4653" d="M 57.199219 172.308594 C 31.421875 157.820312 14.777344 130.09375 14.777344 100 C 14.777344 82.28125 20.296875 65.382812 30.734375 51.125 L 18.8125 42.394531 C 6.503906 59.199219 0 79.121094 0 100 C 0 120.175781 6.105469 139.539062 17.65625 156 C 27.28125 169.722656 40.074219 180.601562 54.980469 187.832031 L 46.4375 200 L 97.605469 190.21875 L 54.890625 160.394531 L 57.199219 172.308594"/></g><g id="change1_1" clip-path="url(#a)"><path fill="#1c4653" d="M 177.558594 44 C 167.929688 30.277344 155.136719 19.398438 140.234375 12.171875 L 148.773438 0 L 97.605469 9.78125 L 140.320312 39.605469 L 138.011719 27.691406 C 163.792969 42.179688 180.433594 69.90625 180.433594 100 C 180.433594 117.71875 174.914062 134.617188 164.476562 148.875 L 176.398438 157.605469 C 188.707031 140.796875 195.210938 120.878906 195.210938 100 C 195.210938 79.824219 189.105469 60.460938 177.558594 44"/></g></g></svg>