<?xml version="1.0" encoding="UTF-8" standalone="no"?><svg xmlns="http://www.w3.org/2000/svg" xmlns:xlink="http://www.w3.org/1999/xlink" contentScriptType="text/ecmascript" zoomAndPan="magnify" contentStyleType="text/css" version="1" width="58" stroke-miterlimit="2" clip-rule="evenodd" fill="#ffffff" preserveAspectRatio="xMidYMid meet" viewBox="3.0 10.0 58.0 44.1" height="44.1" stroke-linejoin="round" fill-rule="evenodd"><g><g><g id="change1_1"><path d="M367.621,417.547C366.147,417.19 364.598,417 363,417C353.04,417 345,424.384 345,433.417C345,437.899 347.006,442.175 350.539,445.265C350.541,445.267 350.544,445.27 350.547,445.273C350.803,445.491 350.93,445.824 350.884,446.157C350.883,446.16 350.883,446.162 350.883,446.164C350.631,448.086 350.109,451.863 350.109,451.863C350.055,452.255 350.237,452.641 350.573,452.85C350.908,453.058 351.335,453.049 351.662,452.827L356.92,449.253C357.166,449.086 357.472,449.037 357.757,449.118C357.759,449.119 357.761,449.119 357.762,449.12C359.457,449.594 361.223,449.834 363,449.834C369.161,449.834 374.596,447.004 377.835,442.714C379.767,443.319 381.841,443.647 384,443.647C385.894,443.647 387.776,443.389 389.581,442.88C389.583,442.88 389.585,442.879 389.587,442.879C389.873,442.796 390.18,442.845 390.426,443.012L396.038,446.827C396.365,447.049 396.792,447.058 397.127,446.85C397.463,446.641 397.645,446.255 397.591,445.863C397.591,445.863 397.026,441.782 396.761,439.767L396.761,439.761C396.714,439.426 396.842,439.092 397.099,438.873C397.102,438.871 397.105,438.869 397.108,438.866C400.865,435.602 403,431.073 403,426.324C403,416.791 394.512,409 384,409C377.014,409 370.921,412.441 367.621,417.547ZM366.598,419.367C365.441,419.127 364.237,419 363,419C354.195,419 347,425.432 347,433.417C347,437.332 348.769,441.058 351.853,443.758C352.623,444.419 353.004,445.426 352.866,446.424C352.743,447.362 352.556,448.741 352.397,449.909L355.797,447.598C356.532,447.099 357.451,446.951 358.301,447.194C359.822,447.619 361.406,447.834 363,447.834C368.264,447.834 372.944,445.539 375.866,441.982C369.436,439.196 365,433.215 365,426.324C365,423.853 365.57,421.499 366.598,419.367ZM367,426.324C367,417.838 374.643,411 384,411C393.357,411 401,417.838 401,426.324C401,430.504 399.104,434.482 395.798,437.355C395.024,438.016 394.64,439.026 394.779,440.035C394.914,441.056 395.127,442.62 395.303,443.909L391.549,441.357C390.812,440.857 389.89,440.71 389.033,440.957C387.409,441.415 385.71,441.647 384,441.647C374.643,441.647 367,434.809 367,426.324ZM365,439L356,439C355.448,439 355,439.448 355,440C355,440.552 355.448,441 356,441L365,441C365.552,441 366,440.552 366,440C366,439.448 365.552,439 365,439ZM363,433L356,433C355.448,433 355,433.448 355,434C355,434.552 355.448,435 356,435L363,435C363.552,435 364,434.552 364,434C364,433.448 363.552,433 363,433ZM392,424C390.344,424 389,425.344 389,427C389,428.656 390.344,430 392,430C393.656,430 395,428.656 395,427C395,425.344 393.656,424 392,424ZM384,424C382.344,424 381,425.344 381,427C381,428.656 382.344,430 384,430C385.656,430 387,428.656 387,427C387,425.344 385.656,424 384,424ZM376,424C374.344,424 373,425.344 373,427C373,428.656 374.344,430 376,430C377.656,430 379,428.656 379,427C379,425.344 377.656,424 376,424ZM362,427L356,427C355.448,427 355,427.448 355,428C355,428.552 355.448,429 356,429L362,429C362.552,429 363,428.552 363,428C363,427.448 362.552,427 362,427ZM392,426C392.552,426 393,426.448 393,427C393,427.552 392.552,428 392,428C391.448,428 391,427.552 391,427C391,426.448 391.448,426 392,426ZM384,426C384.552,426 385,426.448 385,427C385,427.552 384.552,428 384,428C383.448,428 383,427.552 383,427C383,426.448 383.448,426 384,426ZM376,426C376.552,426 377,426.448 377,427C377,427.552 376.552,428 376,428C375.448,428 375,427.552 375,427C375,426.448 375.448,426 376,426Z" transform="translate(-342 -399)"/></g></g></g></svg>