<?xml version="1.0" encoding="UTF-8" standalone="no"?><svg xmlns="http://www.w3.org/2000/svg" xmlns:xlink="http://www.w3.org/1999/xlink" contentScriptType="text/ecmascript" fill="#ed7864" width="40.3" zoomAndPan="magnify" contentStyleType="text/css" viewBox="4.0 4.0 40.3 40.0" height="40" preserveAspectRatio="xMidYMid meet" version="1"><g id="change1_1"><path d="M33.7738,30.9457c1.6116-2.2636,2.4683-5.1018,2.1662-8.1562-.5443-5.5027-4.9219-10.0161-10.4096-10.6946-7.8265-.9678-14.4031,5.6087-13.4356,13.4352,.6784,5.4879,5.1918,9.8655,10.6946,10.4099,3.0545,.3021,5.8927-.5546,8.1563-2.1662l9.6948,9.6403c.3901,.3906,.9023,.5859,1.4141,.5859,.4427,0,.8858-.1462,1.2499-.4386,.9504-.7632,.8937-2.2459,.0318-3.1078l-9.5624-9.5079Zm-9.7738,1.0543c-4.4183,0-8-3.5817-8-8s3.5817-8,8-8,7.9999,3.5817,8,8c0,4.4183-3.5817,8-8,8ZM42,4H6c-1.1046,0-2,.8954-2,2v30c0,1.1046,.8954,2,2,2H23v-.0542c-.1363-.0095-.2719-.0021-.4082-.0156-1.3138-.13-2.5737-.4548-3.7606-.9302H6c-.5514,0-1-.4486-1-1V9H43v27c0,.3538-.1953,.6505-.4733,.8283l.7245,.7204c.4532-.3666,.7488-.9203,.7488-1.5487V6c0-1.1046-.8954-2-2-2ZM7,6.5h-1c-.2764,0-.5-.2236-.5-.5s.2236-.5,.5-.5h1c.2764,0,.5,.2236,.5,.5s-.2236,.5-.5,.5Zm3,0h-1c-.2764,0-.5-.2236-.5-.5s.2236-.5,.5-.5h1c.2764,0,.5,.2236,.5,.5s-.2236,.5-.5,.5Zm3,0h-1c-.2764,0-.5-.2236-.5-.5s.2236-.5,.5-.5h1c.2764,0,.5,.2236,.5,.5s-.2236,.5-.5,.5Z"/></g></svg>