<?xml version="1.0" encoding="UTF-8" standalone="no"?><svg xmlns="http://www.w3.org/2000/svg" xmlns:xlink="http://www.w3.org/1999/xlink" contentScriptType="text/ecmascript" fill="#000000" width="260.7" zoomAndPan="magnify" contentStyleType="text/css" viewBox="1180.6 628.3 260.7 302.7" height="302.7" preserveAspectRatio="xMidYMid meet" version="1"><g fill-opacity="0.996"><g id="change1_1"><path d="M1400.8722,637.5043C1400.8207,637.5043,1400.7725,637.5299,1400.7435,637.5726C1400.709,637.62354,1400.679,637.6641,1400.6393,637.71295L1400.6393,637.7129L1227.0573,850.9517C1227.018,850.99994,1227.0114,851.0669,1227.0403,851.12195C1227.0613,851.1619,1227.098,851.19,1227.1404,851.20044L1227.128,851.20044Q1238.5073,861.021,1246.2125,867.82117C1246.2415,867.8467,1246.2781,867.86,1246.3153,867.86C1246.3369,867.86,1246.3586,867.85547,1246.3792,867.84625C1246.4025,867.83575,1246.4222,867.82,1246.4374,867.8007L1246.4366,867.8007Q1296.6157,805.05396,1397.6028,689.30896L1397.6246,689.2763L1397.6251,689.2753L1397.631,689.2753Q1418.4111,664.79346,1424.91,655.1458L1424.91,655.14575C1424.9333,655.11115,1424.9583,655.07666,1424.9835,655.0441L1424.9692,655.0441C1425.0153,655.0269,1425.0513,654.98834,1425.0646,654.9392C1425.0819,654.87524,1425.0566,654.8073,1425.0018,654.77014Q1414.0803,647.36383,1400.9795,637.5354L1400.8862,637.5043 Z"/></g><g id="change1_5"><path d="M1388.8337,628.3201L1388.7795,628.3255L1388.6781,628.3776Q1237.6521,800.5298,1221.5366,830.7779L1221.5364,830.7779L1221.4084,830.9869L1221.4081,830.9869Q1217.6212,836.41547,1215.1483,840.98035C1215.1222,841.0285,1215.1235,841.0868,1215.1515,841.1338C1215.1794,841.1808,1215.2302,841.20966,1215.2849,841.20966L1215.2738,841.20966C1215.5183,841.28754,1215.752,841.41486,1215.9596,841.59296L1215.9595,841.59296L1216.0065,841.63336L1216.0067,841.6335Q1220.1066,845.15027,1223.8567,848.38104L1223.958,848.4187L1223.959,848.4187C1224.0057,848.4187,1224.0499,848.39764,1224.0795,848.3614L1397.5603,635.247L1397.5464,635.247C1397.5917,635.23047,1397.6277,635.1933,1397.6418,635.14545C1397.6603,635.08344,1397.6384,635.0164,1397.5868,634.97736Q1393.373,631.7843,1388.9441,628.3519L1388.8337,628.3201 Z"/></g><g id="change1_3"><path d="M1428.417,657.10284C1428.3601,657.10284,1428.3077,657.13403,1428.2805,657.1841C1428.2498,657.24066,1428.2173,657.29456,1428.1807,657.3489Q1421.554,667.1862,1400.611,691.8585L1400.6089,691.8611L1400.5908,691.8833L1400.5906,691.8833Q1299.4951,807.7529,1249.3782,870.4381C1249.341,870.48474,1249.3336,870.54865,1249.3595,870.6024C1249.3794,870.64386,1249.4163,870.67365,1249.4595,870.6852L1249.447,870.6852Q1256.5383,876.99316,1259.7229,880.0878L1259.723,880.0879C1259.7933,880.1562,1259.8568,880.2277,1259.9144,880.3038C1259.9443,880.34326,1259.9905,880.3653,1260.0382,880.3653C1260.0547,880.3653,1260.0714,880.3626,1260.0876,880.3572C1260.1106,880.3495,1260.1309,880.33673,1260.1473,880.32043L1260.1464,880.32043Q1261.1577,879.3391,1262.1833,878.2432L1262.1854,878.24097L1262.1942,878.2312Q1344.937,790.93896,1436.655,671.52716L1436.6549,671.52716L1436.6989,671.4727Q1441.2877,665.8863,1438.2544,663.3944L1438.254,663.39417Q1438.2275,663.3725,1438.2012,663.3513L1438.1868,663.3513C1438.1744,663.3229,1438.1534,663.29803,1438.1257,663.281Q1433.5698,660.4814,1428.5171,657.1288L1428.4313,657.10284 Z"/></g><g id="change1_4"><path d="M1194.5886,896.7526C1194.5897,896.75323,1194.5908,896.7539,1194.5918,896.7545L1194.5919,896.7545L1194.593,896.7526 Z M1213.4047,844.6562C1213.3438,844.6562,1213.2886,844.6918,1213.2633,844.7472Q1212.7001,845.9847,1212.2512,847.1482C1212.2424,847.17096,1212.2393,847.195,1212.2415,847.21857L1212.2294,847.21857Q1203.5958,872.90826,1194.4319,896.6968C1194.4135,896.7445,1194.4198,896.7983,1194.4487,896.8405C1194.4734,896.87646,1194.5117,896.9001,1194.5542,896.9063L1194.5422,896.9063Q1194.6179,896.95325,1194.6996,897.0091L1194.7029,897.0113L1194.7112,897.01666L1194.7109,897.01666Q1195.4944,897.56525,1198.7736,900.62555L1198.7737,900.62573L1198.8041,900.65405L1208.9792,910.5437C1209.0088,910.57245,1209.0479,910.58765,1209.0875,910.58765C1209.1079,910.58765,1209.1284,910.5836,1209.148,910.5754C1209.1556,910.5721,1209.1631,910.56824,1209.17,910.5639L1209.1685,910.5639Q1221.6105,902.9726,1253.2687,885.76184L1253.2561,885.76184L1253.3022,885.74554Q1255.1094,884.6513,1256.9694,883.1493C1257.0167,883.1111,1257.0374,883.04877,1257.0222,882.9898C1257.0149,882.96106,1256.9996,882.9357,1256.979,882.9161L1256.9746,882.9161Q1248.6985,874.87384,1213.518,844.69366L1213.4169,844.6562 Z"/></g><g id="change1_2"><path d="M1192.9735,900.733C1192.9095,900.733,1192.852,900.7723,1192.8289,900.8319L1192.8287,900.8319L1192.826,900.83887L1192.8259,900.83936Q1186.8284,916.22125,1180.6049,930.7987C1180.5774,930.86316,1180.5963,930.9381,1180.6514,930.98157C1180.6796,931.00385,1180.7136,931.015,1180.7477,931.015C1180.7802,931.015,1180.8126,931.0049,1180.8401,930.98456L1201.9655,915.356L1201.9552,915.36L1201.9801,915.3495Q1203.0369,914.46484,1205.418,912.917L1205.3943,912.917C1205.455,912.91205,1205.5071,912.872,1205.5277,912.8147C1205.5483,912.7574,1205.5336,912.6933,1205.4899,912.6508L1196.0853,903.51215L1196.0868,903.51215C1196.0857,903.5111,1196.0846,903.5101,1196.0835,903.50903Q1194.0117,901.5757,1193.0874,900.7712L1192.9855,900.733 Z"/></g></g></svg>