<?xml version="1.0" encoding="UTF-8" standalone="no"?><svg xmlns="http://www.w3.org/2000/svg" xmlns:xlink="http://www.w3.org/1999/xlink" contentScriptType="text/ecmascript" fill="#ed7864" width="460.7" zoomAndPan="magnify" contentStyleType="text/css" viewBox="31.7 12.5 460.7 487.0" height="487" preserveAspectRatio="xMidYMid meet" version="1"><g id="change1_1"><path d="M468.28,258.78c-1.01,0-2.01-0.44-2.71-1.28c-1.23-1.49-1.01-3.7,0.48-4.93l20.11-16.54c1.49-1.23,3.7-1.01,4.93,0.48 c1.23,1.49,1.01,3.7-0.48,4.93l-20.11,16.54C469.85,258.52,469.06,258.78,468.28,258.78z"/></g><g id="change1_2"><path d="M325.02,383.11c-1.93,0-3.5,1.57-3.5,3.5v64.73c0,22.7-18.47,41.16-41.16,41.16H129.91c-22.7,0-41.16-18.47-41.16-41.16 V60.66c0-22.7,18.47-41.16,41.16-41.16h17.7l7.49,22.47c1.91,5.72,7.26,9.57,13.28,9.57h73.49c6.02,0,11.37-3.85,13.28-9.57 l7.49-22.47h17.7c22.7,0,41.16,18.47,41.16,41.16v166.65c0,1.93,1.57,3.5,3.5,3.5s3.5-1.57,3.5-3.5V60.66 c0-26.56-21.61-48.16-48.16-48.16H129.91c-26.56,0-48.16,21.61-48.16,48.16v390.67c0,26.56,21.61,48.16,48.16,48.16h150.45 c26.56,0,48.16-21.61,48.16-48.16v-64.73C328.52,384.67,326.95,383.11,325.02,383.11z"/><path d="M184.34,179.09c1.29,0,2.6-0.29,3.81-0.88l73.65-35.59c3.05-1.47,4.94-4.49,4.94-7.88s-1.89-6.4-4.94-7.88l-73.65-35.59 c-2.73-1.32-5.89-1.14-8.46,0.47c-2.57,1.61-4.1,4.38-4.1,7.41v71.17c0,3.03,1.53,5.8,4.1,7.41 C181.12,178.64,182.72,179.09,184.34,179.09z M182.6,99.16c0-0.87,0.57-1.33,0.82-1.48c0.19-0.12,0.52-0.28,0.93-0.28 c0.23,0,0.49,0.05,0.76,0.18l73.65,35.59c0.89,0.43,0.99,1.24,0.99,1.57s-0.1,1.14-0.99,1.57l-73.65,35.59 c-0.79,0.38-1.44,0.06-1.69-0.09c-0.31-0.19-0.82-0.64-0.82-1.48V99.16z"/><path d="M302.78,214.37c0-1.93-1.57-3.5-3.5-3.5H110.99c-1.93,0-3.5,1.57-3.5,3.5s1.57,3.5,3.5,3.5h188.29 C301.21,217.87,302.78,216.3,302.78,214.37z"/><path d="M174.26,332.05h-57.21c-1.93,0-3.5,1.57-3.5,3.5s1.57,3.5,3.5,3.5h57.21c1.93,0,3.5-1.57,3.5-3.5 S176.19,332.05,174.26,332.05z"/><path d="M117.05,373.87h57.21c1.93,0,3.5-1.57,3.5-3.5s-1.57-3.5-3.5-3.5h-57.21c-1.93,0-3.5,1.57-3.5,3.5 S115.12,373.87,117.05,373.87z"/><path d="M225.32,401.69H117.05c-1.93,0-3.5,1.57-3.5,3.5s1.57,3.5,3.5,3.5h108.27c1.93,0,3.5-1.57,3.5-3.5 S227.25,401.69,225.32,401.69z"/><path d="M113.55,440c0,1.93,1.57,3.5,3.5,3.5h176.16c1.93,0,3.5-1.57,3.5-3.5s-1.57-3.5-3.5-3.5H117.05 C115.12,436.5,113.55,438.07,113.55,440z"/><path d="M124.05,313.21h43.21c3.87,0,7-3.13,7-7V263c0-3.87-3.13-7-7-7h-43.21c-3.87,0-7,3.13-7,7v43.21 C117.05,310.08,120.19,313.21,124.05,313.21z"/><path d="M260.56,280.88c-0.94,7.07-3.37,18.62-6.2,32.8h12.9c-2.87-14.71-5.16-25.46-6.37-32.8H260.56z"/><path d="M323.43,279.55h-5.03v54.17h4.92c10.76,0,14.46-8.09,14.46-28.71C337.77,287.34,334.49,279.55,323.43,279.55z"/><path d="M436.48,243.12H213.55c-5.52,0-10,4.48-10,10v109.04c0,5.52,4.48,10,10,10h31.51v34.64c0,1.85,2.29,2.71,3.51,1.31 l31.29-35.95h156.62c5.52,0,10-4.48,10-10V253.12C446.48,247.6,442,243.12,436.48,243.12z M285.45,344.97h-10.28 c-0.95,0-1.78-0.68-1.96-1.61l-3.51-17.73h-17.78l-3.5,17.73c-0.18,0.94-1.01,1.61-1.96,1.61h-9.63c-1.29,0-2.24-1.2-1.95-2.45 l16.87-72.86c0.21-0.91,1.02-1.55,1.95-1.55h14.69c0.93,0,1.74,0.64,1.95,1.54l17.06,72.86 C287.69,343.77,286.74,344.97,285.45,344.97z M323.47,344.97h-16.96c-1.1,0-2-0.9-2-2v-72.86c0-1.1,0.9-2,2-2h18.02 c19.77,0,27.45,12.67,27.45,36.85C351.99,330.92,344.63,344.97,323.47,344.97z M392.01,346.28c-16.55,0-22.32-9.92-23.39-20.64 c-0.12-1.18,0.82-2.2,2-2.2h9.8c0.99,0,1.81,0.72,1.97,1.69c0.94,5.64,3.63,10.3,10.03,10.3c6.77,0,9.29-4.24,9.29-9.96 c0-6.31-3.11-9.99-12.83-14.62c-13.16-6.25-18.31-11.78-18.31-23.2c0-12.33,7.92-20.75,21.82-20.75c16.07,0,20.88,10.1,21.67,19.55 c0.1,1.16-0.84,2.15-2,2.15h-9.6c-0.99,0-1.83-0.72-1.97-1.7c-0.6-4.19-2.23-9.16-8.33-9.16c-5.45,0-7.88,3.53-7.88,8.75 c0,5.53,2.46,8.12,11.47,12.31c13.79,6.38,19.98,12.56,19.98,25.43C415.72,336.3,408.24,346.28,392.01,346.28z"/><path d="M57.43,221.92c0.5,0.25,1.03,0.36,1.55,0.36c1.29,0,2.53-0.71,3.14-1.95c0.86-1.73,0.15-3.83-1.58-4.69L37.2,204.09 c-1.74-0.86-3.83-0.15-4.69,1.58c-0.86,1.73-0.15,3.83,1.58,4.69L57.43,221.92z"/><path d="M58.89,294.91L35.5,306.37c-1.74,0.85-2.45,2.95-1.6,4.68c0.61,1.24,1.85,1.96,3.15,1.96c0.52,0,1.04-0.12,1.54-0.36 l23.38-11.46c1.74-0.85,2.45-2.95,1.6-4.68C62.72,294.78,60.62,294.06,58.89,294.91z"/><path d="M395.4,227.58c0.04,0,0.08,0,0.12,0c1.93-0.06,3.45-1.68,3.38-3.61l-0.86-26.03c-0.06-1.93-1.7-3.42-3.61-3.38 c-1.93,0.06-3.45,1.68-3.38,3.61l0.86,26.03C391.96,226.08,393.52,227.58,395.4,227.58z"/></g></svg>