<?xml version="1.0" encoding="UTF-8" standalone="no"?><svg xmlns="http://www.w3.org/2000/svg" xmlns:xlink="http://www.w3.org/1999/xlink" contentScriptType="text/ecmascript" zoomAndPan="magnify" contentStyleType="text/css" version="1" width="496" stroke-miterlimit="2" clip-rule="evenodd" fill="#000000" preserveAspectRatio="xMidYMid meet" viewBox="7.0 7.0 496.0 496.0" height="496" stroke-linejoin="round" fill-rule="evenodd"><g id="change1_1"><path d="M91.89,365.982C86.256,360.735 82.731,353.262 82.731,345.011L82.731,165.008C82.731,156.848 86.18,149.457 91.692,144.219C95.698,140.401 100.817,137.73 106.487,136.736C108.095,136.454 109.747,136.307 111.432,136.307L398.568,136.307C400.223,136.307 401.848,136.449 403.429,136.722C409.132,137.704 414.282,140.383 418.308,144.219C423.82,149.457 427.269,156.848 427.269,165.008L427.269,272.829C427.269,277.244 423.684,280.829 419.269,280.829C414.854,280.829 411.269,277.244 411.269,272.829L411.269,165.008C411.269,164.07 411.166,163.155 410.971,162.274L299.609,260.367L310.517,269.038C313.973,271.786 314.548,276.823 311.801,280.279C309.053,283.735 304.016,284.31 300.56,281.563L287.413,271.111L260.288,295.004C257.265,297.666 252.735,297.666 249.712,295.004L222.585,271.109L113.657,357.693L250.649,357.693C255.065,357.693 258.649,361.278 258.649,365.693C258.649,370.108 255.065,373.693 250.649,373.693L111.432,373.693C104.154,373.693 97.485,370.957 92.411,366.457C92.232,366.307 92.058,366.149 91.89,365.982ZM398.079,152.307L111.921,152.307L228.031,254.584C228.098,254.642 228.165,254.701 228.232,254.761L255,278.34L281.766,254.763C281.833,254.703 281.9,254.644 281.967,254.585L398.079,152.307ZM99.029,162.274C98.834,163.155 98.731,164.07 98.731,165.008L98.731,345.011C98.731,346.287 98.923,347.519 99.28,348.682L210.388,260.365L99.029,162.274ZM115.105,440.087C147.651,464.744 187.148,481.121 230.709,485.708C268.156,489.652 304.459,484.457 337.395,471.915C341.522,470.344 346.147,472.418 347.719,476.544C349.29,480.671 347.215,485.296 343.089,486.867C307.878,500.276 269.068,505.836 229.033,501.62C183.838,496.861 142.737,480.226 108.547,455.155L113.705,473.226C114.917,477.471 112.454,481.902 108.208,483.114C103.963,484.326 99.532,481.863 98.32,477.617L86.167,435.042C85.492,432.677 85.942,430.133 87.388,428.143C88.834,426.153 91.114,424.939 93.572,424.851L137.821,423.26C142.234,423.101 145.945,426.555 146.103,430.967C146.262,435.38 142.809,439.091 138.396,439.25L115.105,440.087ZM401.452,54.85L396.293,36.775C395.081,32.529 397.544,28.098 401.79,26.886C406.036,25.674 410.467,28.137 411.678,32.383L423.831,74.959C424.506,77.324 424.056,79.868 422.61,81.857C421.164,83.847 418.884,85.061 416.426,85.149L372.177,86.74C367.765,86.899 364.053,83.445 363.895,79.033C363.736,74.621 367.19,70.909 371.602,70.751L394.888,69.913C362.337,45.249 322.863,28.873 279.29,24.292C151.871,10.874 37.71,103.29 24.291,230.709C18.935,281.649 30.495,330.441 54.413,371.543C56.634,375.359 55.339,380.26 51.522,382.481C47.706,384.702 42.805,383.407 40.584,379.59C15.014,335.651 2.653,283.491 8.379,229.035C22.723,92.827 144.757,-5.963 280.964,8.38C326.175,13.133 367.257,29.768 401.452,54.85ZM455.587,138.461C453.364,134.646 454.657,129.744 458.472,127.521C462.288,125.299 467.189,126.592 469.412,130.407C495.011,174.347 507.345,226.537 501.619,280.966C499.684,299.343 495.787,317.038 490.161,333.867C488.761,338.054 484.224,340.317 480.037,338.917C475.849,337.517 473.586,332.981 474.986,328.793C480.251,313.046 483.896,296.487 485.707,279.291C491.063,228.379 479.532,179.562 455.587,138.461ZM402.551,286.992C409.035,288.862 415.283,291.451 421.195,294.718L433.148,289.404C436.173,288.058 439.715,288.716 442.055,291.057L460.543,309.544C462.881,311.882 463.54,315.418 462.201,318.441C462.201,318.441 456.904,330.398 456.904,330.398C460.176,336.317 462.767,342.574 464.638,349.079L476.827,353.77C479.915,354.959 481.953,357.926 481.953,361.236L481.953,387.387C481.953,390.697 479.915,393.665 476.827,394.853C476.827,394.853 464.633,399.546 464.633,399.546C462.759,406.029 460.159,412.278 456.901,418.19L462.201,430.156C463.54,433.179 462.881,436.715 460.543,439.053L442.055,457.54C439.717,459.878 436.182,460.537 433.159,459.198C433.159,459.198 421.206,453.903 421.207,453.903C415.301,457.172 409.038,459.762 402.549,461.632L397.856,473.824C396.668,476.913 393.7,478.95 390.39,478.95L364.239,478.95C360.929,478.95 357.961,476.913 356.773,473.824C356.773,473.824 352.081,461.633 352.082,461.634C345.58,459.759 339.325,457.158 333.41,453.898L321.444,459.198C318.421,460.537 314.885,459.878 312.547,457.54L294.06,439.053C291.719,436.712 291.061,433.171 292.406,430.145C292.406,430.145 297.719,418.197 297.719,418.198C294.453,412.295 291.862,406.036 289.979,399.55L277.776,394.853C274.687,393.665 272.649,390.697 272.649,387.387L272.649,361.236C272.649,357.926 274.687,354.959 277.776,353.77C277.776,353.77 289.976,349.074 289.976,349.075C291.859,342.574 294.452,336.32 297.721,330.405L292.406,318.451C291.061,315.426 291.719,311.885 294.06,309.544L312.547,291.057C314.888,288.716 318.429,288.058 321.454,289.404C321.454,289.404 333.408,294.718 333.407,294.719C339.322,291.449 345.573,288.86 352.058,286.99L356.775,274.766C357.966,271.681 360.932,269.646 364.239,269.646L390.39,269.646C393.701,269.646 396.67,271.686 397.858,274.777L402.551,286.992ZM389.085,296.554C389.085,296.554 384.894,285.646 384.894,285.646L369.727,285.646L365.514,296.565C364.564,299.024 362.465,300.859 359.9,301.468C352.196,303.299 344.849,306.342 338.097,310.503C335.849,311.888 333.062,312.075 330.65,311.002L319.975,306.256L309.259,316.972L314.005,327.647C315.078,330.06 314.891,332.846 313.506,335.094C309.342,341.852 306.297,349.206 304.441,356.94C303.826,359.5 301.992,361.594 299.535,362.54L288.649,366.729C288.649,366.729 288.649,381.894 288.649,381.894L299.535,386.084C301.99,387.029 303.824,389.12 304.439,391.677C306.295,399.385 309.337,406.76 313.5,413.492C314.891,415.742 315.08,418.533 314.005,420.95C314.005,420.95 309.259,431.625 309.259,431.625C309.259,431.625 319.981,442.347 319.981,442.347L330.66,437.616C333.064,436.551 335.838,436.736 338.079,438.109C344.837,442.249 352.188,445.322 359.921,447.154C362.49,447.763 364.594,449.6 365.542,452.065L369.732,462.95C369.732,462.95 384.897,462.95 384.897,462.95L389.087,452.065C390.034,449.602 392.136,447.765 394.703,447.155C402.402,445.325 409.77,442.285 416.495,438.127C418.741,436.738 421.528,436.547 423.943,437.616L434.622,442.347C434.622,442.347 445.349,431.619 445.349,431.619L440.619,420.94C439.554,418.536 439.739,415.762 441.112,413.52C445.253,406.762 448.326,399.41 450.158,391.7C450.768,389.133 452.605,387.032 455.068,386.084L465.953,381.894C465.953,381.894 465.953,366.729 465.953,366.729L455.068,362.54C452.603,361.591 450.766,359.487 450.157,356.918C448.326,349.191 445.283,341.846 441.123,335.094C439.74,332.85 439.551,330.068 440.619,327.657L445.349,316.978L434.628,306.256L423.953,311.002C421.54,312.075 418.754,311.888 416.506,310.503C409.753,306.342 402.407,303.299 394.703,301.468C392.134,300.858 390.032,299.019 389.085,296.554ZM377.301,320.685C406.924,320.685 430.941,344.676 430.941,374.298C430.941,403.919 406.922,427.938 377.301,427.938C347.679,427.938 323.688,403.921 323.688,374.298C323.688,344.675 347.678,320.685 377.301,320.685ZM377.301,336.685C356.518,336.685 339.688,353.516 339.688,374.298C339.688,395.083 356.517,411.938 377.301,411.938C398.087,411.938 414.941,395.084 414.941,374.298C414.941,353.514 398.086,336.685 377.301,336.685Z"/></g></svg>