<?xml version="1.0" encoding="UTF-8" standalone="no"?><svg xmlns="http://www.w3.org/2000/svg" xmlns:xlink="http://www.w3.org/1999/xlink" contentScriptType="text/ecmascript" fill="#000000" width="230" zoomAndPan="magnify" contentStyleType="text/css" viewBox="10.0 11.9 230.0 226.2" height="226" data-name="Шар_1" preserveAspectRatio="xMidYMid meet" version="1"><g id="change1_1"><path fill="#ffffff" d="M240,12.12c-1.32,5.07-7.74,6.93-10.47,9.38-48.96,43.95-89.83,83.77-110.46,148.58-4.29,13.5-7.97,28.02-10.54,41.83-.41,2.23,2.43,3.88,1.86,5.74-.3.95-1.53,1.55-1.91,2.45-.45,1.06.22,2.62-.13,2.94-.29.26-3.77-.27-6.31,1.02-2.34,1.19-8.05,4.72-10.4,6.31-4.63,3.14-5.78,9.43-13.5,7.29-5.25-1.46-4.56-12-5.51-15.38-4.21-14.89-15.25-36.21-23.77-49.34-8.68-13.38-22.06-29.62-35.78-37.4-.99-.56-2.49.09-2.86-.22-.27-.23-.31-5.77.08-7.17,1.19-4.28,27.68-18.55,30.1-17.83,1.4.41,5.5,5.67,7.38,7.35,10.38,9.23,21.67,23.64,30.32,36.49,3.79,5.63,6.87,11.34,9.44,17.65.92,2.27,2.37,1.08,4.13,1.15l10.68-27.97C125.78,96.34,180.92,36.01,230.91,14.51c3.13-1.35,5.15-3.26,9.09-2.4Z"/></g></svg>