<?xml version="1.0" encoding="UTF-8" standalone="no"?><svg xmlns="http://www.w3.org/2000/svg" xmlns:xlink="http://www.w3.org/1999/xlink" contentScriptType="text/ecmascript" zoomAndPan="magnify" contentStyleType="text/css" version="1" width="429" stroke-miterlimit="2" clip-rule="evenodd" fill="#148d5e" preserveAspectRatio="xMidYMid meet" viewBox="40.9 8.0 428.8 496.7" height="497" stroke-linejoin="round" fill-rule="evenodd"><g id="change1_1"><path d="M214.208,95.32L214.208,39.447C214.208,27.67 222.39,17.375 234.094,14.592C234.116,14.587 234.137,14.582 234.159,14.577C247.078,11.634 266.421,8.001 284.539,8.001C302.673,8.001 322.034,11.639 334.943,14.669L334.963,14.674C346.621,17.446 354.773,27.696 354.784,39.425C354.87,58.444 354.87,95.32 354.87,95.32C354.87,134.137 323.355,165.651 284.539,165.651C245.722,165.651 214.208,134.137 214.208,95.32ZM331.73,28.296C319.639,25.458 301.518,22.001 284.539,22.001C267.555,22.001 249.43,25.458 237.276,28.226C231.984,29.511 228.208,34.111 228.208,39.447L228.208,61.245C240.466,58.101 263.234,53.124 284.539,53.124C305.836,53.124 328.596,58.098 340.857,61.242C340.846,55.92 340.824,48.488 340.784,39.479C340.784,39.469 340.784,39.458 340.784,39.447C340.784,34.133 337.011,29.554 331.73,28.296ZM340.828,75.701C330.712,72.939 306.776,67.124 284.539,67.124C262.271,67.124 238.301,72.954 228.208,75.712L228.208,86.123C240.466,82.979 263.234,78.003 284.539,78.003C305.836,78.003 328.596,82.976 340.857,86.12C340.851,83.238 340.842,79.736 340.828,75.701ZM340.632,100.526C330.404,97.742 306.633,92.003 284.539,92.003C262.444,92.003 238.673,97.742 228.446,100.526C231.076,129.179 255.204,151.651 284.539,151.651C313.874,151.651 338.001,129.179 340.632,100.526ZM274.752,213.928L245.491,191.334L220.315,191.334C204.883,191.334 190.084,197.464 179.172,208.376C168.26,219.288 162.13,234.088 162.13,249.519L162.13,314.274C162.13,318.138 158.993,321.274 155.13,321.274C151.266,321.274 148.13,318.138 148.13,314.274L148.13,249.519C148.13,230.375 155.735,212.014 169.272,198.477C182.81,184.939 201.17,177.334 220.315,177.334L247.879,177.334C249.427,177.334 250.932,177.848 252.157,178.794L283.305,202.844C284.026,203.401 285.033,203.4 285.753,202.842L316.758,178.802C317.985,177.851 319.494,177.334 321.047,177.334L348.763,177.334C367.907,177.334 386.268,184.939 399.805,198.477C413.342,212.014 420.948,230.375 420.948,249.519L420.948,324.336C420.948,328.199 417.811,331.336 413.948,331.336C410.084,331.336 406.948,328.199 406.948,324.336L406.948,249.519C406.948,234.088 400.817,219.288 389.906,208.376C378.994,197.464 364.194,191.334 348.763,191.334L323.443,191.334L296.005,212.608L274.478,233.883C271.056,237.264 269.131,241.875 269.131,246.686L269.131,321.349C269.131,325.213 265.994,328.349 262.131,328.349C258.267,328.349 255.131,325.213 255.131,321.349L255.131,246.686C255.131,238.133 258.554,229.937 264.637,223.925L274.752,213.928ZM156.797,455.016C157.809,457.447 158.82,459.878 159.832,462.308L159.835,462.316C161.907,467.325 161.91,472.372 159.864,477.411L159.852,477.441C157.781,482.411 154.211,485.995 149.185,488.111L149.168,488.119C149.168,488.119 119.335,500.486 119.335,500.486C109.313,504.67 97.709,499.869 93.552,489.855C76.722,449.414 59.867,408.973 43.037,368.531C40.923,363.531 40.916,358.455 42.999,353.417C45.077,348.392 48.668,344.804 53.66,342.724L83.523,330.33C93.539,326.173 105.106,330.93 109.304,340.953L109.307,340.961C110.173,343.043 111.04,345.124 111.906,347.206C126.485,340.313 141.043,333.375 155.535,326.287C175.325,316.605 190.928,310.192 209.099,312.647C220.951,314.249 234.005,319.635 250.057,330.868L305.133,345.622C314.511,348.133 321.905,354.464 326.093,362.494L403.078,339.909C436.383,330.139 454.79,337.292 462.887,348.235C468.287,355.534 469.698,364.987 467.677,374.33C464.835,387.464 455.137,400.213 441.917,405.313L325.425,450.202C305.827,457.744 279.64,468.281 258.607,462.175L196.547,444.172L196.535,444.168C189.244,442.04 182.249,442.632 175.411,445.962L156.797,455.016ZM151.408,442.07L169.28,433.375C179.373,428.46 189.697,427.588 200.447,430.726L262.509,448.73C271.197,451.252 280.919,450.019 290.5,447.564C301.068,444.856 311.467,440.573 320.394,437.138L436.877,392.252C445.736,388.834 452.089,380.171 453.993,371.37C455.136,366.089 454.685,360.687 451.633,356.562C449.033,353.049 444.624,350.645 438.313,349.674C430.514,348.474 420.231,349.467 407.019,353.343L329.844,375.983C330.052,379.455 329.716,383.012 328.77,386.542C324.017,404.291 305.587,414.936 287.85,410.155L213.055,390.127C209.323,389.128 207.105,385.286 208.104,381.554C209.103,377.823 212.945,375.604 216.677,376.603L291.471,396.632L291.483,396.635C301.788,399.413 312.487,393.226 315.247,382.92C318.008,372.61 311.821,361.907 301.511,359.145L245.231,344.069C244.428,343.854 243.67,343.497 242.991,343.016C228.861,332.987 217.573,327.92 207.224,326.521C191.714,324.425 178.579,330.599 161.687,338.863C146.941,346.075 132.128,353.133 117.293,360.146C128.661,387.452 140.038,414.76 151.408,442.07ZM101.782,359.315C99.983,354.994 98.185,350.673 96.387,346.352C95.165,343.44 91.803,342.051 88.89,343.26L59.038,355.65C57.586,356.256 56.542,357.303 55.937,358.767C55.341,360.208 55.33,361.661 55.946,363.113L55.955,363.136C72.788,403.582 89.645,444.029 106.478,484.479L106.48,484.482C107.684,487.384 111.045,488.78 113.959,487.559L143.782,475.196L143.805,475.186C145.258,474.565 146.307,473.529 146.925,472.064C147.505,470.603 147.502,469.13 146.899,467.669C145.05,463.227 143.201,458.785 141.352,454.343C141.339,454.311 141.326,454.28 141.313,454.248C128.151,422.63 114.977,391.012 101.815,359.394C101.804,359.367 101.793,359.341 101.782,359.315ZM352.522,280.161C352.522,276.298 355.659,273.161 359.522,273.161C363.386,273.161 366.522,276.298 366.522,280.161L366.522,339.982C366.522,343.845 363.386,346.982 359.522,346.982C355.659,346.982 352.522,343.845 352.522,339.982L352.522,280.161ZM202.555,280.161C202.555,276.298 205.692,273.161 209.555,273.161C213.419,273.161 216.555,276.298 216.555,280.161L216.555,299.791C216.555,303.655 213.419,306.791 209.555,306.791C205.692,306.791 202.555,303.655 202.555,299.791L202.555,280.161ZM323.418,262.323C319.554,262.323 316.418,259.186 316.418,255.323C316.418,251.459 319.554,248.323 323.418,248.323L350.17,248.323C354.034,248.323 357.17,251.459 357.17,255.323C357.17,259.186 354.034,262.323 350.17,262.323L323.418,262.323ZM288.601,239.269C293.432,239.269 297.354,243.191 297.354,248.022C297.354,252.853 293.432,256.775 288.601,256.775C283.77,256.775 279.848,252.853 279.848,248.022C279.848,243.191 283.77,239.269 288.601,239.269ZM288.601,265.138C293.432,265.138 297.354,269.06 297.354,273.891C297.354,278.722 293.432,282.644 288.601,282.644C283.77,282.644 279.848,278.722 279.848,273.891C279.848,269.06 283.77,265.138 288.601,265.138ZM288.601,291.006C293.432,291.006 297.354,294.928 297.354,299.759C297.354,304.59 293.432,308.512 288.601,308.512C283.77,308.512 279.848,304.59 279.848,299.759C279.848,294.928 283.77,291.006 288.601,291.006ZM288.601,316.875C293.432,316.875 297.354,320.797 297.354,325.628C297.354,330.459 293.432,334.381 288.601,334.381C283.77,334.381 279.848,330.459 279.848,325.628C279.848,320.797 283.77,316.875 288.601,316.875Z"/></g></svg>