<?xml version="1.0" encoding="UTF-8" standalone="no"?><svg xmlns="http://www.w3.org/2000/svg" xmlns:xlink="http://www.w3.org/1999/xlink" contentScriptType="text/ecmascript" fill="#1c4653" width="866.3" zoomAndPan="magnify" contentStyleType="text/css" viewBox="66.8 23.6 866.3 954.6" height="954.6" preserveAspectRatio="xMidYMid meet" version="1"><g id="change1_1"><path d="M476,256.6l-1.2-6.9c-7.6-42.6-41-76-83.6-83.6l-54.9-9.7L281.7,54.6c-6.2-11.4-17-19.7-29.6-22.6l-29.5-6.7 c-7.4-1.7-13.9,5.1-11.9,12.4l27.4,101.3l-94.5-16.8l-23.5-50.3c-1.2-2.7-3.6-4.6-6.4-5.4l-33.6-9.3c-6.8-1.9-13.3,3.6-12.6,10.6 l7.4,79.6c1.8,19.4,15.6,35.5,34.4,40.4l344.8,89.1C466.7,280,478.3,269.3,476,256.6z"/><path d="M308.8,541c0,8.6,4.9,16.5,12.6,20.4c3.2,1.6,6.7,2.4,10.2,2.4c4.8,0,9.6-1.5,13.6-4.5l98.9-73.6 c5.8-4.3,9.2-11.1,9.2-18.3s-3.4-14-9.2-18.3l-98.9-73.6c-6.9-5.1-16.2-5.9-23.8-2.1c-7.7,3.9-12.6,11.7-12.6,20.4v47.4h-59.2 c-46.3,0-84-37.7-84-84v-66.4c0-14.5-11.7-26.2-26.2-26.2s-26.2,11.7-26.2,26.2v66.4c0,75.2,61.2,136.4,136.4,136.4h59.2V541z"/><path d="M685.9,757.2l-55-75l8.5,60.5c0.9,3,0.4,6.8-0.8,9.8l-61.4,160.6c-8.5,20.9-0.9,45.6,18.3,56.2c4.3,2.1,8.1,3.4,12.4,4.7 c20,4.2,40.9-6,49.4-25.6l38.3-91.6l-8.9-97.6C686.8,758.5,686.4,757.6,685.9,757.2z"/><path d="M898.8,484.2L820,473.6c0,0-49.7-72-56-80.9c-5.5-7.7-15.8-24.7-28-33c-15.8-10.9-35.2-15.2-53.9-11.6 c-9.9,2.1-20.8,8.1-26.8,12.4c-6,4.3-97.8,70.5-97.8,70.5l-20.1,15.4c-8.1,6.2-13.2,15.5-14.1,25.7l-8.8,97.2 c-0.3,3.5-0.1,6.9,0.5,10.3c1.3,6.6,4.8,12.3,9.2,17.2l-34.7,71.9l-70.7-34.1c-17.7-8.6-39.1-1.1-47.6,16.6l-95.7,198.4 c-8.6,17.7-1.1,39,16.6,47.6l78.1,37.6c0.1,22.2,18.1,40.2,40.3,40.2c22.2,0,40.3-18.1,40.3-40.3c0-2.9-1.1-5.4-1.6-8.1l93.1-192.9 c8.5-17.8,1.1-39.1-16.6-47.6l-11.2-5.4l34.7-72c0.8,0,1.4,0.4,2.2,0.4c19.1-0.2,34.3-16.3,36-35.2l7.2-79.2L624,474l-10.8,107.2 c-1.1,10.8,1.8,21.6,8.3,30.3l92.1,125.5c4.2,5.7,6.7,12.4,7.4,19.5l16.1,172c1.9,22.3,15.3,43,37.4,46.1c4.4,0.6,8.7,0.6,12.8,0 c20.4-3,38.7-20.6,37.2-41.4l-9.6-204.2c-0.3-5.7-1.8-11.3-4.5-16.4c0,0-56-105.8-59.3-112.3c-2.4-4.8-2-11.5-1.7-16.2 c0.4-4.7,5.5-76.3,5.5-76.3l14.4,20.7c5.8,8.4,14.9,13.9,25,15.3l96.7,13.1c3.5,0.5,7,0.4,10.3-0.1c16.8-2.5,30.4-16.6,31.1-34.9 C933.1,502.7,917.7,486.8,898.8,484.2z M386.2,780.4l-39.5,82.8c-3.1,6.5-10.8,9.2-17.2,6.1c-6.4-3.1-9.2-10.8-6.1-17.2l39.5-82.7 c3.1-6.5,10.8-9.2,17.2-6.1C386.6,766.3,389.3,774,386.2,780.4z M410.5,950.1c-8.5,0-15.5-6.9-15.5-15.5c0-8.5,7-15.5,15.5-15.5 c8.5,0,15.5,6.9,15.5,15.5C425.9,943.2,419,950.1,410.5,950.1z"/><path d="M712.9,328c42-6.3,71.1-45.4,64.8-87.5c-6.2-42-45.4-71.1-87.4-64.8c-42.1,6.3-71.1,45.4-64.8,87.5 C631.6,305.2,670.8,334.2,712.9,328z"/></g></svg>