<?xml version="1.0" encoding="UTF-8" standalone="no"?><svg xmlns="http://www.w3.org/2000/svg" xmlns:xlink="http://www.w3.org/1999/xlink" contentScriptType="text/ecmascript" fill="#000000" width="32.1" zoomAndPan="magnify" contentStyleType="text/css" viewBox="-0.0 -1.1 32.1 33.2" height="33.2" preserveAspectRatio="xMidYMid meet" version="1"><g id="change1_1"><path fill="#148d5e" d="M1.636,21.051A11.858,11.858,0,0,1,.444,21a.5.5,0,0,1,.04-1c1.169-.037,2.655-2.45,2.76-3.695a10.006,10.006,0,1,1,4.281,3.069A9.74,9.74,0,0,1,1.636,21.051ZM11,1A8.994,8.994,0,0,0,4.132,15.808a.5.5,0,0,1,.118.312,6.609,6.609,0,0,1-1.866,3.9A7.83,7.83,0,0,0,7.093,18.43a.492.492,0,0,1,.524-.093A9,9,0,1,0,11,1Z"/></g><g id="change1_2"><path fill="#148d5e" d="M11,15a5,5,0,1,1,5-5A5.006,5.006,0,0,1,11,15Zm0-9a4,4,0,1,0,4,4A4,4,0,0,0,11,6Z"/></g><g id="change1_3"><path fill="#148d5e" d="M14.5,16a.5.5,0,0,1-.354-.146l-4-4a.5.5,0,0,1,.708-.708l4,4A.5.5,0,0,1,14.5,16Z"/></g><g id="change1_4"><path fill="#148d5e" d="M30.364,32.051a9.745,9.745,0,0,1-5.89-1.677,9.993,9.993,0,0,1-13.35-7.8.5.5,0,0,1,.988-.156,8.994,8.994,0,0,0,12.271,6.915.5.5,0,0,1,.524.093,7.83,7.83,0,0,0,4.709,1.595,6.609,6.609,0,0,1-1.866-3.9.5.5,0,0,1,.118-.312,9,9,0,0,0-4.5-14.494.5.5,0,0,1,.262-.964,10,10,0,0,1,5.125,15.955c.105,1.245,1.591,3.658,2.76,3.7a.5.5,0,0,1,.04,1A11.858,11.858,0,0,1,30.364,32.051Z"/></g><g id="change1_5"><path fill="#148d5e" d="M25.5,26a.5.5,0,0,1-.436-.255L21,18.519l-4.064,7.226a.5.5,0,1,1-.872-.49l4.5-8a.52.52,0,0,1,.872,0l4.5,8A.5.5,0,0,1,25.5,26Z"/></g><g id="change1_6"><path fill="#148d5e" d="M23.812,23H18.188a.5.5,0,0,1,0-1h5.624a.5.5,0,0,1,0,1Z"/></g></svg>