<?xml version="1.0" encoding="UTF-8" standalone="no"?><svg xmlns="http://www.w3.org/2000/svg" xmlns:xlink="http://www.w3.org/1999/xlink" contentScriptType="text/ecmascript" fill="#000000" width="517.9" zoomAndPan="magnify" contentStyleType="text/css" viewBox="-0.0 0.0 517.9 357.8" height="357.8" preserveAspectRatio="xMidYMid meet" version="1"><g><g id="change1_1"><path d="M74.4,0.6c0-0.3-0.3-0.6-0.6-0.6L53,0c-0.3,0-0.6,0.3-0.6,0.6v0.6H24.6C11.5,1.2,0.8,11.8,0.8,24.9v1.9 c-0.3,0.1-0.6,0.2-0.6,0.3c-0.1,0.2-0.2,0.6-0.2,1l0,18.6c0,0.3,0.1,0.8,0.2,1c0.1,0.1,0.3,0.2,0.6,0.3v286 c0,13.1,10.6,23.8,23.8,23.8h469.5c13.1,0,23.8-10.6,23.8-23.8V24.9c0-13.1-10.6-23.8-23.8-23.8H102.9V0.6c0-0.3-0.3-0.6-0.6-0.6 L81.5,0c-0.3,0-0.6,0.3-0.6,0.6v0.6h-6.4V0.6z M492.8,11.2c8.3,0,15.1,6.8,15.1,15.1v306.6c0,8.3-6.8,15.1-15.1,15.1H25.9 c-8.3,0-15.1-6.8-15.1-15.1V221.3c0,0,0.6-0.9,2.3-0.9c5.2,0,9.4-4.2,9.4-9.4v-62.8c0-5.2-4.2-9.4-9.4-9.4c-1.4,0-2.3-0.9-2.3-0.9 V26.3c0-8.3,6.8-15.1,15.1-15.1H492.8z"/></g><g id="change2_1"><path fill="#505050" d="M2.6,25.1v308.8c0,12.2,9.9,22.1,22.1,22.1h469.1c12.2,0,22.1-9.9,22.1-22.1V25.1C516,12.9,506.1,3,493.9,3 L24.8,3C12.5,3,2.6,12.9,2.6,25.1z M492.9,6C504,6,513,15,513,26.1v306.8c0,11.1-9,20.1-20.1,20.1H25.8c-11.1,0-20.1-9-20.1-20.1 V26.1C5.6,15,14.7,6,25.8,6H492.9z M12.8,157.9v43.3c0,0.9,0.7,1.6,1.6,1.6s1.6-0.7,1.6-1.6v-43.3c0-0.9-0.7-1.6-1.6-1.6 S12.8,157,12.8,157.9z"/></g></g></svg>