<?xml version="1.0" encoding="UTF-8" standalone="no"?><svg xmlns="http://www.w3.org/2000/svg" xmlns:xlink="http://www.w3.org/1999/xlink" contentScriptType="text/ecmascript" fill="#ffffff" width="384" zoomAndPan="magnify" contentStyleType="text/css" viewBox="64.1 23.8 384.5 485.2" height="485" data-name="Layer 1" preserveAspectRatio="xMidYMid meet" version="1"><g id="change1_1"><path d="M250.77612,266.10693c-4.68262,2.19043-9.33984,4.74854-13.67981,7.57471-16.78381,10.96143-30.62683,26.32178-40.41589,43.82031-1.99194,3.61377-4.06274,7.57324-5.73828,11.37158-1.87915,3.9624-3.82703,9.15332-5.36084,13.30859-1.04907,3.45605-2.36499,7.20557-3.19287,10.70459,0,0-.39893,1.61963-.79639,3.23389-4.45581-19.85645-12.86377-38.83447-24.90942-55.24609,0,0-3.81604-5.15674-3.81592-5.15674-2.31836-2.80469-4.89856-5.77734-7.28076-8.54297-2.01929-2.11133-5.86572-5.90332-7.89941-7.9751-12.9342-11.90234-27.80371-21.66406-43.93506-28.59375,.83838-.37842,1.87427-.84619,1.87427-.84619,39.28418-17.14404,70.07959-51.93359,82.81909-92.80811,1.06714-3.66406,2.0874-7.43359,2.98132-11.23535,4.33215,18.26514,11.93555,35.70264,22.68201,51.17188,1.7926,2.41602,4.91956,6.54395,6.74084,8.91504,1.328,1.52051,4.91711,5.65869,6.29102,7.21826,2.93689,3.06641,5.9491,6.08789,9.06604,8.96973,1.57056,1.3335,5.76318,4.92822,7.27734,6.20215,2.37671,1.79932,6.52856,4.8501,8.97095,6.61475,2.48999,1.61914,6.86084,4.28613,9.43115,5.92383,1.78918,.92139,6.72388,3.59717,8.43286,4.45898,3.75659,1.91309,7.75171,3.46631,11.62378,5.11475,1.30347,.43311,2.65723,.87109,4.01904,1.30518-3.61023,1.89502-7.08813,4.03564-10.3479,6.48926-1.10083,.83643-1.66687,2.2749-1.32092,3.70459,.46716,1.93164,2.41785,3.1167,4.34753,2.64014,4.17993-.98828,13.8606-3.41943,17.88745-4.22412,.49561-.11279,1.12708-.40332,1.62598-.58691,6.66602-2.93896,7.89502-12.61475,2.19409-17.2793-1.00146-.90479-2.29224-1.5332-3.52588-2.02051-2.17957-.96484-4.3938-1.92139-6.59253-2.82031-3.48035-1.31592-6.98169-3.26221-10.37292-4.76416-1.35669-.57373-3.76392-1.9917-5.02087-2.69482l-4.96924-2.78418s-4.74463-3.15088-4.74451-3.15088c-.99133-.62402-2.53235-1.7124-3.55396-2.36133-.64514-.52002-4.92371-3.7915-5.6217-4.35498-29.86914-23.7002-48.29883-59.94434-50.54578-97.92773-.37573-4.68945-.91443-11.30566-1.28674-15.96045-.84863-12.19971-16.92773-16.25049-23.58728-6.06299-1.72278,2.47803-2.05371,5.59131-2.23828,8.51367,0,0-1.02612,12.0127-1.02625,12.0127-.57874,7.52344-1.56079,15.31592-3.18506,22.66553-8.01416,36.78955-32.51099,69.68994-65.65771,87.63818l-4.9624,2.69043s-5.15125,2.31055-5.15112,2.31055c-1.42603,.62207-3.73279,1.7583-5.18921,2.21582-1.65088,.58398-6.40649,2.33984-7.96069,2.8916-3.20361,1.02832-6.01196,3.34863-7.52612,6.35938-3.50879,6.55518-.2334,15.29248,6.72241,17.84766,3.53308,1.34961,7.28833,2.60352,10.79358,4.01367,18.18738,7.63916,34.73083,19.31934,47.92297,33.979,18.12366,20.28906,30.12939,46.24023,33.26025,73.33057,.62769,4.09766,1.33435,13.3418,1.74902,17.70996l.53638,6.00439,.01672,.1875,.05688,.46045c.34375,2.9165,1.67175,5.72266,3.83496,7.73926,7.84631,7.40039,20.9574,2.19092,21.43762-8.54688,.90625-11.14355,1.48047-23.97266,3.58472-34.9541,.76611-3.40039,1.64819-7.66602,2.6748-11.01367,.42114-1.51074,.6875-2.36914,1.16382-4.09326l.46729-1.33936s1.87097-5.35986,1.87085-5.35986c.98022-2.51123,2.18323-5.39746,3.23914-7.88086,10.84851-23.6792,27.85486-43.72217,47.70618-60.53857,3.36133-2.76855,.0415-8.01855-3.89062-6.18896Zm31.99133-17.75098c.07019-.01123,.01001,.01562-.06238,.04443-.33447,.14453-.66577,.29688-.9989,.44531,.22815-.1875,.48523-.33594,.77112-.41895,.09009-.04199,.19019-.06689,.29016-.0708ZM176.14185,105.04736l.00061,.00635c-.00195-.02051-.0094-.04102-.01111-.06201-.00366-.12256,.00574,.00439,.0105,.05566Zm.16418,291.30127c-.00574-.05078,.00427-.23438,.02258-.34424,.00439-.03223,.01392-.06396,.01929-.09619-.0022,.02148-.00427,.04395-.00647,.06543l-.0354,.375Zm10.05164-.03711s-.0072-.08887-.01172-.14453c.00244,.01904,.00952,.03711,.01172,.05615,.00293,.03076,.00781,.21191,0,.08838Z"/></g><g id="change1_2"><path d="M248.8468,117.77686c7.59753,4.93994,15.79395,10.22705,22.85205,16.31104,12.90271,11.31934,21.52991,27.53564,23.49731,44.58203,.47168,3.63086,.80505,9.16064,1.11816,12.88135,.07043,.75488,.04578,1.01807,.24573,2.05615,.97046,5.54297,7.53174,8.78027,12.60791,6.30859,2.98047-1.28516,5.06824-4.49951,5.20557-7.75342l.07385-.82471s.14795-1.64941,.14807-1.64941c.62976-7.27783,1.16455-14.53711,3.31738-21.47168,6.09741-21.25195,23.02979-38.99414,43.99756-46.0293l.70618-.25977s.35303-.12988,.35291-.12988c7.60327-2.23584,8.7395-12.84473,1.76001-16.61572-26.94531-8.56738-46.93677-32.25146-49.30762-60.64355-.20264-2.22852-.68518-7.52197-.8855-9.87451-.05994-3.87939-2.35376-7.53662-6.21167-8.81494-6.26074-2.00439-12.14233,2.49561-12.14392,9.03369l-.12805,1.65137s-.25549,3.30225-.25562,3.30225c-.36951,5.29395-.86182,10.24512-2.05566,15.31201-.28638,1.12842-.86353,3.20801-1.14917,4.37451-1.06494,3.28271-2.36707,6.72217-3.82861,9.84131-2.67236,5.39453-5.896,10.64746-9.84265,15.22705-3.19861,3.89648-7.04895,7.36816-10.89294,10.6084-3.89966,3.31592-8.146,6.40088-12.60278,8.96484-2.32446,1.45215-4.83276,2.64355-7.29724,3.87695-4.3302,1.99072-3.85205,8.57568,.71875,9.73535Zm109.53772-.11035c.15247,.04834,.302,.104,.45471,.15186-.15466-.04004-.30627-.09131-.45471-.15186Zm-58.01953-82.62549c.00269,.0332,.00586,.07178,.00854,.10645-.01917-.17725-.02307-.30566-.00854-.10645Z"/></g><g id="change1_3"><path d="M436.5957,364.15527c-29.22498-9.48584-53.18042-31.49268-65.19019-59.7876-.8125-2.2583-2.26709-5.57471-3.02368-7.78955-1.59155-4.64014-3.00146-9.33398-4.28296-14.08496-1.87793-7.89941-3.26831-15.93018-5.47571-23.76318-1.15381-3.96826-6.85107-3.34766-7.28394,.62109-.83838,8.4209-1.17883,16.89795-.57068,25.33447,.78296,7.11963,2.04236,14.24219,4.38635,21.02979l1.52319,4.5542,1.87305,4.42139c2.40942,5.84424,5.57947,11.66455,8.93799,17.00928,11.88904,19.11816,29.48694,34.43848,49.77551,44.15625-31.75171,14.75781-55.45996,43.07031-65.32178,76.25586-.37207-1.34863-.7644-2.71045-1.10596-3.62256-7.38806-22.23193-21.15601-42.27051-39.41333-56.96533-2.2301-1.61328-5.5332-4.26318-7.80505-5.72949-2.36072-1.48193-5.81604-3.82275-8.22864-5.0957-1.32751-.71973-5.13892-2.75684-6.40088-3.42334-1.12598-.48291-2.25305-.99072-3.38208-1.50049,5.79602-2.75049,11.39319-5.9292,16.6438-9.55078,9.17554-6.35596,17.5929-14.05566,24.65308-22.70947,6.17151-7.30908,11.18213-15.63232,14.43091-24.62402,1.55103-4.48486,2.69727-9.18604,3.16101-13.91211,.11523-1.21924-.38879-2.47363-1.44263-3.25928-1.64954-1.2373-4.00354-.82812-5.16626,.86426-3.61157,4.84668-6.64636,9.66846-9.97998,14.27051-3.33862,4.57715-6.54248,9.14795-10.12,13.43799-1.43091,1.87402-3.90527,4.53711-5.4928,6.30078-1.72449,1.69238-4.1925,4.23975-6.02551,5.77783-8.22534,7.43701-17.73486,13.45801-27.80737,18.02979-3.67676,1.604-7.80298,3.10938-11.64404,4.37158-5.51831,1.58936-9.16138,7.71094-8.04785,13.24463,.58252,3.79395,3.4978,7.50146,7.24255,8.88379l.7738,.29053,.96924,.36572s3.87781,1.45459,3.87793,1.45459c3.23438,1.11133,6.34058,2.77783,9.4668,4.1543,.97559,.56641,4.47644,2.45459,5.42554,3.00244,27.01941,15.39453,46.12769,43.36621,51.08887,73.98975,1.01099,7.3584,1.60913,15.33594,2.24536,22.771,.58972,13.41309,18.91455,16.12793,23.44788,3.72021,.4137-1.13672,.55322-2.15576,.67371-3.29248,.26331-3.17334,.87598-10.24072,1.13696-13.41162,1.71509-23.41895,11.28381-46.13477,27.1687-63.46289,11.11401-12.18896,25.23572-21.63965,40.68457-27.35986,3.40259-1.30469,7.66565-2.34375,9.95972-5.43701,5.66309-6.88086,2.15283-17.22998-6.33521-19.53027Zm-164.40515,6.42285s.22021,.07666,.22009,.07666c.01575,.00635,.02832,.01562,.04395,.02197-.12646-.04443-.2334-.08203-.29712-.104-.08203-.02686-.0835-.03076,.03308,.00537Zm159.39087,11.08887c-.1582-.04785-.31409-.10693-.46497-.17627-.00366-.00146-.00708-.00439-.01099-.00586,.16772,.06152,.36365,.13281,.36365,.13281l.14221,.05176c.0741,.02539,.0957,.03613-.02991-.00244Z"/></g></svg>