<?xml version="1.0" encoding="UTF-8" standalone="no"?><svg xmlns="http://www.w3.org/2000/svg" xmlns:xlink="http://www.w3.org/1999/xlink" contentScriptType="text/ecmascript" fill="#bacde9" width="411" zoomAndPan="magnify" contentStyleType="text/css" viewBox="50.3 81.9 411.3 348.2" height="348" preserveAspectRatio="xMidYMid meet" version="1"><g id="change1_1"><path d="M302.9,396.4H95.3c-3.3,0-6-2.7-6-6s2.7-6,6-6h207.7c3.3,0,6,2.7,6,6S306.3,396.4,302.9,396.4z"/></g><g id="change1_4"><path d="M262,369.4H123.8c-3.3,0-6-2.7-6-6s2.7-6,6-6H262c3.3,0,6,2.7,6,6S265.3,369.4,262,369.4z"/></g><g><g id="change1_10"><path d="M432.6,430.1H79.4c-16,0-29.1-13-29.1-29.1V111c0-16,13-29.1,29.1-29.1h353.1c16,0,29.1,13,29.1,29.1v290 C461.6,417,448.6,430.1,432.6,430.1z M79.4,93.9c-9.4,0-17.1,7.7-17.1,17.1v290c0,9.4,7.7,17.1,17.1,17.1h353.1 c9.4,0,17.1-7.7,17.1-17.1V111c0-9.4-7.7-17.1-17.1-17.1H79.4z"/></g><g id="change1_3"><path d="M324.5,325.2H113.3c-10.9,0-19.8-8.9-19.8-19.8V217c0-10.9,8.9-19.8,19.8-19.8h216.3c10.9,0,19.8,8.9,19.8,19.8v88.4 c0,2-0.3,4-0.9,5.9c-0.5,1.5-1.6,2.8-3,3.6c-1.5,0.7-3.1,0.8-4.7,0.3l-12.6-4.4l2.1,6.6c0.6,1.8,0.3,3.8-0.9,5.4 C328.2,324.3,326.4,325.2,324.5,325.2z M113.3,209.2c-4.3,0-7.8,3.5-7.8,7.8v88.4c0,4.3,3.5,7.8,7.8,7.8h203l-0.7-2.1 c-1.2-3.7-0.2-7.7,2.6-10.4c2.8-2.7,6.8-3.6,10.5-2.3l8.6,3V217c0-4.3-3.5-7.8-7.8-7.8H113.3z"/></g><g id="change1_2"><path d="M455.6,162.8H56.4c-3.3,0-6-2.7-6-6s2.7-6,6-6h399.2c3.3,0,6,2.7,6,6S458.9,162.8,455.6,162.8z"/></g><g id="change1_7"><path d="M97.1,133.6c-5.1,0-9.2-4.1-9.2-9.2s4.1-9.2,9.2-9.2s9.2,4.1,9.2,9.2S102.2,133.6,97.1,133.6z M97.1,121.6 c-1.5,0-2.8,1.2-2.8,2.8s1.2,2.8,2.8,2.8s2.8-1.2,2.8-2.8S98.6,121.6,97.1,121.6z"/></g><g id="change1_5"><path d="M132.7,133.6c-5.1,0-9.2-4.1-9.2-9.2s4.1-9.2,9.2-9.2s9.2,4.1,9.2,9.2S137.8,133.6,132.7,133.6z M132.7,121.6 c-1.5,0-2.8,1.2-2.8,2.8s1.2,2.8,2.8,2.8s2.8-1.2,2.8-2.8S134.2,121.6,132.7,121.6z"/></g><g id="change1_8"><path d="M168.3,133.6c-5.1,0-9.2-4.1-9.2-9.2s4.1-9.2,9.2-9.2s9.2,4.1,9.2,9.2S173.4,133.6,168.3,133.6z M168.3,121.6 c-1.5,0-2.8,1.2-2.8,2.8s1.2,2.8,2.8,2.8s2.8-1.2,2.8-2.8S169.8,121.6,168.3,121.6z"/></g><g id="change1_6"><path d="M406.2,412.7c-2.7,0-5.4-1.1-7.3-3l-28-28.3L360.2,397c-2.2,3.2-6,4.9-9.9,4.3c-3.9-0.6-7-3.3-8.2-7L315.6,311 c-1.2-3.7-0.2-7.7,2.6-10.4c2.8-2.7,6.8-3.6,10.5-2.3l81.4,28.4c3.5,1.2,6,4.1,6.7,7.7c0.7,3.6-0.6,7.2-3.4,9.6l-13,11.2 l25.3,24.7c3.8,3.7,4.1,9.7,0.8,13.8l-12.4,15.2c-1.9,2.3-4.6,3.6-7.5,3.8C406.6,412.7,406.4,412.7,406.2,412.7z M407.5,401.2 L407.5,401.2C407.5,401.2,407.5,401.2,407.5,401.2z M370.7,368.3c2.7,0,5.3,1.1,7.3,3l28.1,28.4l10.1-12.4l-25.5-24.9 c-2-2-3.2-4.8-3.1-7.6c0.1-2.9,1.4-5.6,3.5-7.4l12.1-10.4l-75.1-26.2l24.2,76.4l10-14.5c1.8-2.5,4.5-4.1,7.5-4.4 C370.2,368.4,370.4,368.3,370.7,368.3z M417.3,386.1C417.3,386.1,417.3,386.1,417.3,386.1C417.3,386.1,417.3,386.1,417.3,386.1z"/></g><g id="change1_9"><path d="M209.7,282.7c-0.3,0-0.6,0-0.9,0c-6.6-0.3-13.2-3.4-18.6-8.8c-4.7-4.7-7.8-10.4-10.3-15.3c-0.3-0.6-0.6-1.3-0.9-1.9 c-1.6-3.4-3.2-6.6-5.3-9.1c-2.2-2.6-4.9-4.1-7.2-4c-3,0.1-6.2,3-8.4,5.2c-7.8,7.8-14,17.3-18,27.6c-1.2,3.1-4.7,4.6-7.8,3.4 c-3.1-1.2-4.6-4.7-3.4-7.8c4.6-11.8,11.8-22.7,20.7-31.7c3.9-3.9,9.2-8.4,16.3-8.7c6.1-0.3,12.3,2.7,17,8.3c3,3.6,5,7.7,6.9,11.5 c0.3,0.6,0.6,1.2,0.9,1.8c2,4,4.5,8.6,8,12.1c3.2,3.2,7.1,5.1,10.6,5.3c4.1,0.2,8.4-2.2,10.4-5.8c0.5-1,1-2.1,1.5-3.4 c0.5-1.3,1.2-2.9,2-4.4c2.6-4.8,6.5-7.7,10.9-8.3c5.2-0.7,10.7,2.1,14.3,7.5c1.1,1.7,2,3.4,2.8,4.9c0.7,1.4,1.4,2.8,2.2,3.9 c4.4,6.2,14.7,6.4,21.6,3c8.5-4.2,15-12.8,20.7-20.5c2-2.7,5.7-3.2,8.4-1.2s3.2,5.7,1.2,8.4c-6.2,8.3-13.9,18.5-25,24 c-11.4,5.6-28.2,5.2-36.7-6.8c-1.3-1.9-2.3-3.8-3.1-5.5c-0.7-1.3-1.3-2.6-2-3.6c-1.1-1.7-2.4-2.3-2.7-2.2c-0.2,0-1.1,0.6-2,2.2 c-0.5,0.9-0.9,2-1.4,3.2c-0.6,1.5-1.3,3.1-2.2,4.8C226,278,217.9,282.7,209.7,282.7z"/></g></g></svg>