<?xml version="1.0" encoding="UTF-8" standalone="no"?><svg xmlns="http://www.w3.org/2000/svg" xmlns:xlink="http://www.w3.org/1999/xlink" contentScriptType="text/ecmascript" fill="#000000" width="474" zoomAndPan="magnify" contentStyleType="text/css" viewBox="18.9 20.4 474.1 471.2" height="471" data-name="Layer 1" preserveAspectRatio="xMidYMid meet" version="1"><g id="change1_1"><path d="M251.11,323.53a90.81,90.81,0,1,1,78.77-45.34A90.33,90.33,0,0,1,251.11,323.53Zm.28-167.66a77.55,77.55,0,0,0-20,2.64,76.36,76.36,0,1,0,20-2.64Z"/></g><g id="change1_2"><path d="M49.67,145.28A30.72,30.72,0,1,1,65.1,88h0a30.72,30.72,0,0,1-7.44,56.27A31.26,31.26,0,0,1,49.67,145.28Zm.08-47.45a16.75,16.75,0,1,0,8.34,2.25A16.73,16.73,0,0,0,49.75,97.83Z"/></g><g id="change1_3"><path d="M73,364.06A31.06,31.06,0,0,1,65,363a30.72,30.72,0,0,1-7.37-56.28h0A30.72,30.72,0,1,1,73,364.06Zm-8.4-45.21A16.72,16.72,0,1,0,87.47,325a16.59,16.59,0,0,0-22.84-6.13Z"/></g><g id="change1_4"><path d="M249.39,491.61h0a30.72,30.72,0,0,1,0-61.44h0a30.72,30.72,0,0,1,0,61.44Zm0-47.44a16.73,16.73,0,0,0-16.72,16.71h0a16.71,16.71,0,0,0,16.71,16.73h0a16.72,16.72,0,0,0,0-33.44Zm-23.72,16.71h0Z"/></g><g id="change1_5"><path d="M179.41,196.54a6.93,6.93,0,0,1-3.49-.94L66.75,132.48a7,7,0,0,1,7-12.12l109.16,63.12a7,7,0,0,1-3.51,13.06Z"/></g><g id="change1_6"><path d="M390.55,318.62a7,7,0,0,1-3.49-.94L321,279.5a7,7,0,1,1,7-12.12l66,38.18a7,7,0,0,1-3.51,13.06Z"/></g><g id="change1_7"><path d="M411,354.22a30.78,30.78,0,1,1,8-1.05A31.13,31.13,0,0,1,411,354.22Zm.08-47.45a17,17,0,0,0-4.35.57,16.68,16.68,0,1,0,4.35-.57Z"/></g><g id="change1_8"><path d="M93.53,328.48A7,7,0,0,1,90,315.41l52.21-30.1,31.95-18.45a7,7,0,0,1,7,12.13l-31.95,18.44L97,327.54A6.91,6.91,0,0,1,93.53,328.48Z"/></g><g id="change1_9"><path d="M322.85,196.11A7,7,0,0,1,319.34,183L351,164.76l87.24-50.3a7,7,0,1,1,7,12.13L358,176.89l-31.65,18.28A7,7,0,0,1,322.85,196.11Z"/></g><g id="change1_10"><path d="M462.33,139.39a30.71,30.71,0,1,1,15.29-4.1A30.73,30.73,0,0,1,462.33,139.39ZM462.25,92a16.56,16.56,0,0,0-8.32,2.25,16.72,16.72,0,1,0,16.7,29h0a16.72,16.72,0,0,0-4-30.63A17.07,17.07,0,0,0,462.25,92Z"/></g><g id="change1_11"><path d="M249.41,444.17h0a7,7,0,0,1-7-7l.06-86.54-.11-34.07a7,7,0,0,1,7-7h0a7,7,0,0,1,7,7l.11,34.1-.06,86.57A7,7,0,0,1,249.41,444.17Z"/></g><g id="change1_12"><path d="M248.82,155.93a7,7,0,0,1-7-7l-.12-39.38,0-34.74a7,7,0,0,1,7-7h0a7,7,0,0,1,7,7l0,34.71.12,39.36a7,7,0,0,1-7,7Z"/></g><g id="change1_13"><path d="M248.76,81.83h0a30.72,30.72,0,0,1,0-61.44h0a30.72,30.72,0,0,1,0,61.44Zm0-47.44a16.72,16.72,0,0,0,0,33.44h0a16.71,16.71,0,0,0,16.72-16.71h0a16.71,16.71,0,0,0-16.71-16.73Z"/></g></svg>