<?xml version="1.0" encoding="UTF-8" standalone="no"?><svg xmlns="http://www.w3.org/2000/svg" xmlns:xlink="http://www.w3.org/1999/xlink" contentScriptType="text/ecmascript" zoomAndPan="magnify" text-rendering="geometricPrecision" contentStyleType="text/css" version="1" width="213" clip-rule="evenodd" fill="#000000" preserveAspectRatio="xMidYMid meet" viewBox="0.2 9.9 213.0 193.5" height="193" fill-rule="evenodd" image-rendering="optimizeQuality"><g id="change1_1"><path d="M28.53 164c1.81,-2.07 4.95,-2.28 7.02,-0.47 2.07,1.81 2.28,4.95 0.47,7.02l-19.93 22.86 127.87 0 53.28 -61.11 -6.22 0c-2.76,0 -4.99,-2.24 -4.99,-5 0,-2.76 2.24,-4.99 4.99,-4.99l17.17 0.01c1.17,0.01 2.33,0.41 3.28,1.24 2.07,1.81 2.28,4.95 0.47,7.02l-61.7 70.78c-0.91,1.24 -2.37,2.04 -4.02,2.04l-141.07 -0.01c-1.17,-0.01 -2.33,-0.41 -3.28,-1.24 -2.07,-1.81 -2.28,-4.95 -0.47,-7.02l27.14 -31.13zm0 -56.19c1.81,-2.07 4.95,-2.28 7.02,-0.47 2.07,1.81 2.28,4.95 0.47,7.02l-19.93 22.86 127.87 0 53.28 -61.11 -6.22 0c-2.76,0 -4.99,-2.24 -4.99,-5 0,-2.76 2.24,-4.99 4.99,-4.99l17.17 0.01c1.17,0.01 2.33,0.41 3.28,1.24 2.07,1.81 2.28,4.95 0.47,7.02l-61.7 70.78c-0.91,1.23 -2.37,2.04 -4.02,2.04l-141.07 -0.01c-1.17,-0.01 -2.33,-0.41 -3.28,-1.24 -2.07,-1.81 -2.28,-4.95 -0.47,-7.02l27.14 -31.13zm117.68 -16.8l-141.07 -0.01c-1.17,-0.01 -2.33,-0.41 -3.28,-1.24 -2.07,-1.81 -2.28,-4.95 -0.47,-7.02l61.7 -70.78c0.91,-1.24 2.37,-2.04 4.02,-2.04l141.07 0.01c1.17,0.01 2.33,0.41 3.28,1.24 2.07,1.81 2.28,4.95 0.47,7.02l-61.7 70.78c-0.91,1.23 -2.37,2.04 -4.02,2.04z"/></g></svg>