<?xml version="1.0" encoding="UTF-8" standalone="no"?><svg xmlns="http://www.w3.org/2000/svg" xmlns:xlink="http://www.w3.org/1999/xlink" contentScriptType="text/ecmascript" fill="#738137" width="116.2" zoomAndPan="magnify" contentStyleType="text/css" viewBox="6.0 0.0 116.2 128.0" height="128" preserveAspectRatio="xMidYMid meet" version="1"><g id="change1_1"><path d="M32,38h16c2.2,0,4-1.8,4-4V12c0-2.2-1.8-4-4-4H32c-2.2,0-4,1.8-4,4v22C28,36.2,29.8,38,32,38z M32,12h16l0,22H32V12z"/></g><g id="change1_2"><path d="M86,30H60c-1.1,0-2,0.9-2,2s0.9,2,2,2h26c1.1,0,2-0.9,2-2S87.1,30,86,30z"/></g><g id="change1_3"><path d="M86,42H30c-1.1,0-2,0.9-2,2s0.9,2,2,2h56c1.1,0,2-0.9,2-2S87.1,42,86,42z"/></g><g id="change1_4"><path d="M86,50H30c-1.1,0-2,0.9-2,2s0.9,2,2,2h56c1.1,0,2-0.9,2-2S87.1,50,86,50z"/></g><g id="change1_5"><path d="M86,57.5H30c-1.1,0-2,0.9-2,2s0.9,2,2,2h56c1.1,0,2-0.9,2-2S87.1,57.5,86,57.5z"/></g><g id="change1_6"><path d="M20,4.2V62h4V4.2C24,4.1,24.1,4,24.2,4h67.6C91.9,4,92,4.1,92,4.2V62h4V4.2C96,1.9,94.1,0,91.8,0H24.2C21.9,0,20,1.9,20,4.2 z"/></g><g id="change1_7"><path d="M28.7,84c-0.4,0.2-0.9,0.3-1.6,0.3c-0.9,0-2-0.3-3.3-0.8c-0.2,0.6-0.4,1.1-0.5,1.6c-0.1,0.5-0.2,1-0.3,1.5 c0.8,0.3,1.5,0.5,2.1,0.6s1.4,0.2,2.2,0.2c0.9,0,1.8-0.1,2.5-0.3c0.7-0.2,1.3-0.5,1.8-1c0.5-0.4,0.9-0.9,1.1-1.5 c0.3-0.6,0.4-1.2,0.4-2c0-0.7-0.1-1.2-0.3-1.7c-0.2-0.5-0.4-0.9-0.8-1.2c-0.3-0.3-0.7-0.6-1.2-0.9c-0.5-0.2-1-0.5-1.5-0.7l-1-0.4 c-0.4-0.1-0.7-0.3-0.9-0.5C27.2,77.3,27,77,27,76.6c0-0.2,0-0.4,0.1-0.6c0.1-0.2,0.2-0.3,0.4-0.4c0.2-0.1,0.3-0.2,0.5-0.2 c0.2,0,0.4-0.1,0.6-0.1c0.7,0,1.3,0.1,1.8,0.2c0.5,0.2,0.9,0.3,1.3,0.5c0.2-0.5,0.4-1,0.5-1.5c0.1-0.5,0.2-1,0.3-1.4 c-0.7-0.3-1.4-0.5-2.1-0.6c-0.6-0.1-1.3-0.2-2-0.2c-0.8,0-1.5,0.1-2.1,0.3c-0.6,0.2-1.2,0.5-1.6,0.9c-0.4,0.4-0.8,0.9-1,1.4 c-0.2,0.6-0.4,1.2-0.4,1.9c0,0.6,0.1,1.1,0.2,1.5c0.2,0.4,0.4,0.8,0.7,1.2c0.3,0.3,0.6,0.6,1,0.9c0.4,0.2,0.8,0.5,1.3,0.6l1.1,0.4 c0.2,0.1,0.4,0.1,0.5,0.2c0.2,0.1,0.3,0.2,0.5,0.3c0.1,0.1,0.2,0.2,0.3,0.4s0.1,0.3,0.1,0.6C29.2,83.5,29,83.8,28.7,84z"/></g><g id="change1_8"><path d="M37.7,72.5c-0.3,0-0.5,0-0.8,0c-0.3,0-0.5,0-0.8,0c-0.3,0-0.6,0.1-1,0.1V81c0,1,0.1,1.9,0.3,2.7c0.2,0.8,0.5,1.5,0.9,2.1 c0.4,0.6,1,1,1.7,1.3c0.7,0.3,1.6,0.5,2.8,0.5s2-0.2,2.8-0.5c0.7-0.3,1.3-0.7,1.7-1.3c0.4-0.6,0.7-1.3,0.9-2.1s0.3-1.7,0.3-2.7v-8.4 c-0.4-0.1-0.7-0.1-1-0.1c-0.3,0-0.6,0-0.8,0c-0.2,0-0.5,0-0.8,0c-0.3,0-0.6,0.1-1,0.1v7.9c0,0.7,0,1.3-0.1,1.7 c0,0.5-0.1,0.9-0.3,1.2c-0.1,0.3-0.3,0.5-0.6,0.6c-0.3,0.1-0.6,0.2-1,0.2c-0.4,0-0.8-0.1-1-0.2c-0.3-0.1-0.5-0.3-0.6-0.6 c-0.1-0.3-0.2-0.7-0.3-1.2c-0.1-0.5-0.1-1.1-0.1-1.7v-7.9C38.3,72.6,38,72.5,37.7,72.5z"/></g><g id="change1_9"><path d="M57.7,78.1c0.3-0.5,0.4-1.1,0.4-1.8c0-0.8-0.1-1.4-0.4-1.9c-0.3-0.5-0.7-0.9-1.2-1.2c-0.5-0.3-1.1-0.5-1.8-0.7 s-1.4-0.2-2.2-0.2c-0.8,0-1.5,0-2.2,0.1s-1.2,0.1-1.7,0.2v14.6c0.7,0.1,1.3,0.2,1.9,0.2c0.6,0.1,1.2,0.1,2,0.1 c0.9,0,1.8-0.1,2.6-0.2s1.5-0.4,2-0.7c0.6-0.3,1-0.8,1.4-1.4c0.3-0.6,0.5-1.3,0.5-2.2c0-0.5-0.1-1-0.2-1.4c-0.1-0.4-0.3-0.8-0.5-1.1 c-0.2-0.3-0.5-0.5-0.8-0.7c-0.3-0.2-0.6-0.4-0.9-0.5C57.1,79,57.4,78.6,57.7,78.1z M52.3,75.2c0.1,0,0.2,0,0.3,0c0.1,0,0.2,0,0.3,0 c0.2,0,0.4,0,0.6,0.1s0.4,0.1,0.6,0.2s0.3,0.3,0.4,0.5s0.2,0.4,0.2,0.7c0,0.6-0.2,1-0.5,1.2c-0.3,0.2-0.8,0.4-1.4,0.4h-0.6V75.2z M55.2,83.7c-0.1,0.2-0.3,0.4-0.5,0.5c-0.2,0.1-0.5,0.2-0.7,0.3s-0.5,0.1-0.8,0.1c-0.2,0-0.4,0-0.6,0s-0.3,0-0.4,0v-3.4h0.8 c0.7,0,1.2,0.1,1.7,0.4c0.4,0.3,0.6,0.7,0.6,1.4C55.4,83.2,55.3,83.5,55.2,83.7z"/></g><g id="change1_10"><path d="M72.6,72.5c-0.3,0-0.5,0-0.8,0.1c-0.3,0-0.6,0.1-0.8,0.1l-3,7.6L65,72.6c-0.3,0-0.6-0.1-0.9-0.1c-0.3,0-0.6-0.1-0.9-0.1 c-0.3,0-0.6,0-0.9,0.1s-0.6,0.1-0.9,0.1l-0.6,14.6c0.6,0.1,1.2,0.2,1.7,0.2c0.5,0,1.1-0.1,1.6-0.2l0.2-8.4l2,5.5 c0.2,0.1,0.5,0.1,0.7,0.1c0.2,0,0.4,0,0.6,0c0.2,0,0.4,0,0.7,0c0.2,0,0.5-0.1,0.7-0.1l2.3-5.6l0.3,8.5c0.7,0.1,1.2,0.2,1.7,0.2 c0.4,0,0.8,0,1.1-0.1s0.5-0.1,0.7-0.1l-0.7-14.6c-0.3,0-0.6-0.1-0.9-0.1C73.2,72.5,72.9,72.5,72.6,72.5z"/></g><g id="change1_11"><path d="M78.3,72.5c-0.3,0-0.6,0.1-1,0.1v14.6c0.7,0.1,1.3,0.2,1.8,0.2c0.5,0,1.1-0.1,1.8-0.2V72.6c-0.4-0.1-0.7-0.1-1-0.1 c-0.3,0-0.6,0-0.8,0C78.9,72.5,78.6,72.5,78.3,72.5z"/></g><g id="change1_12"><path d="M87.9,87.4c0.5,0,1.1-0.1,1.8-0.2V75.8h3.4c0.1-0.6,0.2-1.2,0.2-1.6c0-0.2,0-0.5,0-0.7c0-0.3-0.1-0.5-0.1-0.8H82.7 c-0.1,0.6-0.2,1.1-0.2,1.6c0,0.5,0.1,1,0.2,1.6h3.4v11.5C86.8,87.4,87.4,87.4,87.9,87.4z"/></g><g id="change1_13"><path d="M88,11c0-1.7-1.3-3-3-3H61c-1.7,0-3,1.3-3,3v4c0,1.7,1.3,3,3,3h24c1.7,0,3-1.3,3-3V11z M84,14H62v-2h22V14z"/></g><g id="change1_14"><path d="M86,22H60c-1.1,0-2,0.9-2,2s0.9,2,2,2h26c1.1,0,2-0.9,2-2S87.1,22,86,22z"/></g><g id="change1_15"><path d="M117.6,92.2h-1.2c-0.1,0-0.3,0-0.4,0c-0.4-2-2.2-3.5-4.5-3.5h-1.2c-0.5,0-0.9,0.1-1.4,0.2c-0.1-0.2-0.3-0.4-0.4-0.5 c-1.2-1.2-2.8-1.2-3.3-1.2h-1.2c-0.2,0-0.4,0-0.6,0.1v-5c0-2.4-1.9-4.3-4.2-4.3h-1.1c-2.3,0-4.2,1.9-4.2,4.3V97c-0.1,0-0.2,0-0.3,0 h-1.2c-2.4,0-4.4,1.9-4.4,4.3V118c0,1,0.3,1.9,1,2.7l5.5,6.6c0.4,0.5,1,0.7,1.5,0.7c0.4,0,0.9-0.2,1.3-0.5c0.9-0.7,1-2,0.3-2.8 l-5.5-6.6c0,0,0-0.1,0-0.1v-16.7c0-0.2,0.2-0.3,0.4-0.3h1.2c0.3,0,0.3,0.3,0.3,0.3v5.2v3.5c0,1.1,0.9,2,2,2s2-0.9,2-2v-3.5v-5.2v-19 c0-0.2,0.1-0.3,0.2-0.3h1.1c0.1,0,0.2,0.1,0.2,0.3v9h0c0,0.1,0,0.1,0,0.2v6.4c0,1.1,0.9,2,2,2s2-0.9,2-2l0-6.4 c0-0.1,0.2-0.2,0.6-0.2h1.2c0.2,0,0.4,0,0.4,0c0.1,0.2,0.2,0.6,0.1,1.6c0,0,0,0.1,0,0.1c0,0,0,0,0,0v5.9c0,1.1,0.9,2,2,2s2-0.9,2-2 V93c0,0,0.2-0.3,0.6-0.3h1.2c0.4,0,0.6,0.2,0.6,0.3v3.5v2.9v1.4c0,1.1,0.9,2,2,2s2-0.9,2-2v-1.4v-2.9c0-0.1,0.1-0.3,0.3-0.3h1.2 c0.3,0,0.4,0.2,0.4,0.3v18.4c0,0,0,0.1,0,0.1l-5.5,8.5c-0.6,0.9-0.3,2.2,0.6,2.8c0.3,0.2,0.7,0.3,1.1,0.3c0.7,0,1.3-0.3,1.7-0.9 l5.4-8.3c0.5-0.7,0.8-1.6,0.8-2.5V96.4C122,94.1,120,92.2,117.6,92.2z"/></g><g id="change1_16"><path d="M89.9,93.4V90H18.8c-4.8,0-8.8-3.9-8.8-8.8v-2.4c0-4.8,3.9-8.8,8.8-8.8h78.4c4.4,0,8.1,3.3,8.7,7.6c0.9,1.3,1.5,3,1.5,4.7 v1.2c0.9,0.2,1.6,0.5,2.3,0.9c0.2-1,0.4-2,0.4-3.1v-2.4c0-7-5.7-12.8-12.8-12.8H18.8C11.7,66,6,71.7,6,78.8v2.4 c0,7,5.7,12.8,12.8,12.8h69.6C88.9,93.7,89.4,93.5,89.9,93.4z"/></g></svg>