<?xml version="1.0" encoding="UTF-8" standalone="no"?><svg xmlns="http://www.w3.org/2000/svg" xmlns:xlink="http://www.w3.org/1999/xlink" contentScriptType="text/ecmascript" zoomAndPan="magnify" text-rendering="geometricPrecision" contentStyleType="text/css" version="1" width="1707" clip-rule="evenodd" fill="#000000" preserveAspectRatio="xMidYMid meet" viewBox="0.0 9.0 1707.0 1651.0" height="1651" fill-rule="evenodd" image-rendering="optimizeQuality"><g id="change1_1"><path fill="#1c4653" d="M981 486l-39 -40 -163 163 -22 61 62 -22 162 -162zm-625 942c-16,0 -29,-14 -26,-31l28 -182 -270 0c-48,0 -88,-39 -88,-88l0 -618c0,-49 40,-88 88,-88l804 0 340 -341c71,-71 184,27 121,109 24,24 62,50 37,75l-145 144c-24,25 -62,-12 -37,-37l125 -126 -18 -18 -240 240c6,13 10,27 10,42l0 177 536 0c47,0 86,38 86,85l0 591c0,47 -39,85 -86,85l-256 0 26 173c4,24 -25,40 -43,24l-228 -197 -367 0c-47,0 -86,-38 -86,-85l0 -147 -55 0 -238 207c-5,4 -12,6 -18,6zm482 -954l-750 0c-19,0 -35,16 -35,35l0 618c0,19 16,35 35,35l301 0c16,0 29,14 26,31l-21 141 190 -166c5,-4 11,-6 18,-6l395 0c19,0 35,-16 35,-35l0 -617 -180 180c-8,8 -132,51 -139,51 -19,0 -32,-18 -25,-35 7,-20 40,-122 49,-131l101 -101zm247 265l0 388c0,49 -40,88 -88,88l-276 0 0 147c0,17 14,32 32,32l377 0c7,0 13,2 18,6l180 156 -21 -132c-2,-16 10,-30 27,-30l287 0c18,0 32,-15 32,-32l0 -591c0,-18 -14,-32 -32,-32l-536 0zm-500 -106l-398 0c-35,0 -35,-54 0,-54l398 0c35,0 35,54 0,54zm0 141l-398 0c-35,0 -35,-53 0,-53l398 0c35,0 35,53 0,53zm313 141l-711 0c-35,0 -35,-53 0,-53l711 0c35,0 35,53 0,53zm0 142l-711 0c-35,0 -35,-54 0,-54l711 0c35,0 35,54 0,54zm573 190c-13,0 -86,-38 -102,-46l-90 43c-19,9 -40,-6 -38,-27l13 -99 -68 -72c-15,-16 -7,-41 14,-45l98 -18 48 -88c10,-18 37,-18 47,0l47 88 98 18c21,4 29,29 15,45l-69 72 13 99c2,16 -10,30 -26,30zm-213 -202c63,65 54,40 43,130 81,-39 55,-39 137,0 -12,-90 -20,-65 42,-130 -89,-17 -68,-1 -111,-81 -43,80 -22,64 -111,81zm-279 -637l40 40 42 -42 -39 -40 -43 42zm120 -40l208 -208c31,-31 -12,-67 -37,-42l-211 211 40 39z"/></g></svg>