<?xml version="1.0" encoding="UTF-8" standalone="no"?><svg xmlns="http://www.w3.org/2000/svg" xmlns:xlink="http://www.w3.org/1999/xlink" contentScriptType="text/ecmascript" zoomAndPan="magnify" text-rendering="geometricPrecision" contentStyleType="text/css" version="1" width="512" clip-rule="evenodd" fill="#148d5e" preserveAspectRatio="xMidYMid meet" viewBox="94.0 104.0 512.0 492.1" height="492.1" fill-rule="evenodd" image-rendering="optimizeQuality"><g><g><g id="change1_6"><path d="M455.114 596.037l-210.222 0c-45.7406,0 -82.9513,-37.2107 -82.9513,-82.9501l0 -144.052c0,-45.7394 37.2107,-82.9501 82.9513,-82.9501l57.6627 0c3.69095,0 6.90355,2.52402 7.77521,6.11103 3.17363,13.0784 15.2244,22.5697 28.6489,22.5697l22.4162 0.0011811c2.12362,0 4.15867,0.840946 5.65749,2.34685 1.49646,1.5 2.34213,3.53622 2.34213,5.65749l-0.0129921 42.0355 59.2512 -48.2434c1.42441,-1.16221 3.2126,-1.79528 5.0504,-1.79528l80.2914 -0.0011811c2.45079,0 4.76693,1.12087 6.28347,3.04134 11.6504,14.7685 17.8075,32.4815 17.8075,51.2221l0 144.047c0,45.7489 -37.2107,82.9595 -82.9513,82.9595zm-210.222 -293.948c-36.9154,0 -66.952,30.0319 -66.952,66.9509l0 144.047c0,36.9142 30.0319,66.9509 66.952,66.9509l210.222 0c36.9154,0 66.952,-30.0366 66.952,-66.9509l0 -144.052c0,-13.8402 -4.1752,-26.9941 -12.104,-38.2689l-73.4339 0 -70.1056 57.0804c-2.39173,1.95 -5.69528,2.3374 -8.48269,1.02047 -2.79213,-1.32402 -4.56733,-4.14095 -4.56733,-7.22954l0.0177166 -50.8678 -14.4118 0.0011811c-18.887,0 -35.4567,-11.5205 -42.2563,-28.6819l-51.8304 0z"/></g><g id="change1_2"><path d="M169.94 515.233l-30.4524 0c-25.0772,0 -45.476,-20.3988 -45.476,-45.476l-0.0011811 -57.3863c0,-25.0784 20.3988,-45.4772 45.476,-45.4772l30.4536 0c4.42087,0 7.99962,3.57993 7.99962,7.99962l0 132.344c0,4.41733 -3.57874,7.99607 -7.99962,7.99607zm-30.4489 -132.34c-16.2532,0 -29.4768,13.2248 -29.4768,29.478l0 57.3839c0,16.2532 13.2236,29.478 29.4768,29.478l22.454 0.0011811 0 -116.341 -22.454 0z"/></g><g id="change1_8"><path d="M560.514 515.233l-30.4536 0c-4.42087,0 -7.99962,-3.57874 -7.99962,-7.99962l0 -132.34c0,-4.41969 3.57874,-7.99962 7.99962,-7.99962l30.4536 0c25.0772,0 45.476,20.3988 45.476,45.4772l0 57.3839c0,25.0796 -20.3988,45.4784 -45.476,45.4784zm-22.4492 -15.9992l22.4528 0c16.252,0 29.4768,-13.2248 29.4768,-29.4768l0.0011811 -57.3863c0,-16.2532 -13.2236,-29.478 -29.4768,-29.478l-22.454 0 0 116.341z"/></g><g><g><g id="change1_3"><path d="M275.052 437.012c-4.42087,0 -7.99962,-3.57993 -7.99962,-7.99962l0 -37.3229c0,-4.42087 3.57874,-7.99962 7.99962,-7.99962 4.41969,0 7.99962,3.57874 7.99962,7.99962l0 37.3229c0,4.41615 -3.58347,7.99962 -7.99962,7.99962z"/></g><g id="change1_10"><path d="M424.953 436.782c-4.41969,0 -7.99962,-3.57993 -7.99962,-7.99962l0 -36.8646c0,-4.41969 3.57993,-7.99962 7.99962,-7.99962 4.42087,0 7.99962,3.57993 7.99962,7.99962l0 36.8693c0,4.41733 -3.57874,7.99489 -7.99962,7.99489z"/></g></g><g id="change1_12"><path d="M389.234 498.434l-78.4631 0c-4.41969,0 -7.99962,-3.57993 -7.99962,-7.99962 0,-4.42087 3.57993,-7.99962 7.99962,-7.99962l78.4631 0c4.41969,0 7.99962,3.57874 7.99962,7.99962 0,4.41969 -3.57993,7.99962 -7.99962,7.99962z"/></g></g><g id="change1_1"><path d="M361.372 389.641c-1.16693,0 -2.34095,-0.257481 -3.43229,-0.774804 -2.79213,-1.32402 -4.56733,-4.14095 -4.56733,-7.22954l0.0177166 -50.8678 -14.4118 0.0011811c-25.0748,0 -45.4737,-20.3988 -45.4737,-45.476l0 -135.853c0,-25.0772 20.3988,-45.476 45.4737,-45.476l214.32 -0.00236221c25.0772,0 45.4725,20.4 45.4725,45.4772l0 135.852c0,25.0784 -20.3988,45.4772 -45.4725,45.4772l-116.77 0.0011811 -70.1056 57.0757c-1.4504,1.18465 -3.24095,1.79528 -5.0504,1.79528zm-22.3937 -269.679c-16.2532,0 -29.4744,13.2248 -29.4744,29.478l0 135.852c0,16.2532 13.2201,29.478 29.4744,29.478l22.4162 0.0011811c2.12362,0 4.15867,0.840946 5.65276,2.34685 1.50118,1.5 2.34685,3.53622 2.34685,5.65749l-0.0129921 42.0355 59.2512 -48.2434c1.42441,-1.16221 3.2126,-1.79528 5.0504,-1.79528l119.615 -0.0011811c16.2496,0 29.4733,-13.2248 29.4733,-29.4768l0 -135.853c0,-16.252 -13.2236,-29.4768 -29.4733,-29.4768l-214.32 -0.00236221z"/></g><g id="change1_11"><path d="M369.427 246.448c-16.037,0 -29.0776,-13.0441 -29.0776,-29.0764 0,-16.037 13.0453,-29.0776 29.0776,-29.0776 16.0323,0 29.0776,13.0453 29.0776,29.0776 0.00472441,16.0323 -13.0406,29.0764 -29.0776,29.0764zm0 -42.1595c-7.21182,0 -13.0831,5.87009 -13.0831,13.0831 0,7.21182 5.86654,13.0772 13.0831,13.0772 7.21654,0 13.0831,-5.86536 13.0831,-13.0772 0,-7.213 -5.86772,-13.0831 -13.0831,-13.0831z"/></g><g id="change1_4"><path d="M446.135 246.448c-16.037,0 -29.0776,-13.0441 -29.0776,-29.0764 0,-16.037 13.0453,-29.0776 29.0776,-29.0776 16.0323,0 29.0776,13.0453 29.0776,29.0776 0.00472441,16.0323 -13.0406,29.0764 -29.0776,29.0764zm0 -42.1595c-7.21182,0 -13.0831,5.87009 -13.0831,13.0831 0,7.21182 5.86654,13.0772 13.0831,13.0772 7.21772,0 13.0831,-5.86536 13.0831,-13.0772 0,-7.213 -5.86536,-13.0831 -13.0831,-13.0831z"/></g><g id="change1_5"><path d="M522.845 246.448c-16.037,0 -29.0776,-13.0441 -29.0776,-29.0764 0,-16.037 13.0453,-29.0776 29.0776,-29.0776 16.0323,0 29.0776,13.0453 29.0776,29.0776 0.00472441,16.0323 -13.0406,29.0764 -29.0776,29.0764zm0 -42.1595c-7.213,0 -13.0831,5.87009 -13.0831,13.0831 0,7.21182 5.86536,13.0772 13.0831,13.0772 7.21654,0 13.0831,-5.86536 13.0831,-13.0772 0,-7.213 -5.86772,-13.0831 -13.0831,-13.0831z"/></g><g id="change1_9"><path d="M139.491 382.893c-4.41969,0 -7.99962,-3.57993 -7.99962,-7.99962l0 -106.395c0,-4.42087 3.57993,-7.99962 7.99962,-7.99962 4.42087,0 7.99962,3.57874 7.99962,7.99962l0 106.395c0,4.41733 -3.58229,7.99962 -7.99962,7.99962z"/></g><g id="change1_7"><path d="M139.491 276.498c-22.7362,0 -41.2311,-18.4949 -41.2311,-41.2311 0,-22.7362 18.4949,-41.2311 41.2311,-41.2311 22.7362,0 41.2311,18.4949 41.2311,41.2311 0,22.7362 -18.4984,41.2311 -41.2311,41.2311zm0 -66.4583c-13.911,0 -25.2319,11.3209 -25.2319,25.2319 0,13.911 11.3209,25.2319 25.2319,25.2319 13.911,0 25.2319,-11.3209 25.2319,-25.2319 0,-13.911 -11.3197,-25.2319 -25.2319,-25.2319z"/></g></g></g></svg>